<svg xmlns="http://www.w3.org/2000/svg" width="347" height="14" viewBox="0 0 347 14">
    <defs>
        <clipPath id="clip-path">
            <path id="사각형_1613" fill="#e66526" d="M0 0H347V14H0z" transform="translate(1095 796)"/>
        </clipPath>
        <style>
            .cls-3{fill:none;stroke:#fff;stroke-width:1.5px}
        </style>
    </defs>
    <g id="마스크_그룹_10" clip-path="url(#clip-path)" transform="translate(-1095 -796)">
        <g id="그룹_2349" transform="rotate(-14.98 3423.066 -3995.381)">
            <path id="선_12" d="M174.745 0L0 174.745" class="cls-3" transform="translate(47.812)"/>
            <path id="선_37" d="M174.745 0L0 174.745" class="cls-3"/>
            <path id="선_23" d="M174.745 0L0 174.745" class="cls-3" transform="translate(95.624)"/>
            <path id="선_29" d="M174.745 0L0 174.745" class="cls-3" transform="translate(130.687)"/>
            <path id="선_35" d="M174.745 0L0 174.745" class="cls-3" transform="translate(171.061)"/>
            <path id="선_17" d="M174.745 0L0 174.745" class="cls-3" transform="translate(68)"/>
            <path id="선_40" d="M174.745 0L0 174.745" class="cls-3" transform="translate(20.187)"/>
            <path id="선_20" d="M174.745 0L0 174.745" class="cls-3" transform="translate(109.437)"/>
            <path id="선_26" d="M174.745 0L0 174.745" class="cls-3" transform="translate(157.249)"/>
            <path id="선_32" d="M174.745 0L0 174.745" class="cls-3" transform="translate(192.311)"/>
            <path id="선_36" d="M174.745 0L0 174.745" class="cls-3" transform="translate(198.686)"/>
            <path id="선_13" d="M174.745 0L0 174.745" class="cls-3" transform="translate(55.25)"/>
            <path id="선_38" d="M174.745 0L0 174.745" class="cls-3" transform="translate(6.375)"/>
            <path id="선_22" d="M174.745 0L0 174.745" class="cls-3" transform="translate(89.249)"/>
            <path id="선_43" d="M174.745 0L0 174.745" class="cls-3" transform="translate(41.437)"/>
            <path id="선_28" d="M174.745 0L0 174.745" class="cls-3" transform="translate(137.062)"/>
            <path id="선_34" d="M174.745 0L0 174.745" class="cls-3" transform="translate(178.499)"/>
            <path id="선_16" d="M174.745 0L0 174.745" class="cls-3" transform="translate(75.437)"/>
            <path id="선_41" d="M174.745 0L0 174.745" class="cls-3" transform="translate(27.625)"/>
            <path id="선_18" d="M174.745 0L0 174.745" class="cls-3" transform="translate(116.874)"/>
            <path id="선_24" d="M174.745 0L0 174.745" class="cls-3" transform="translate(150.874)"/>
            <path id="선_14" d="M174.745 0L0 174.745" class="cls-3" transform="translate(61.625)"/>
            <path id="선_39" d="M174.745 0L0 174.745" class="cls-3" transform="translate(13.812)"/>
            <path id="선_21" d="M174.745 0L0 174.745" class="cls-3" transform="translate(103.062)"/>
            <path id="선_27" d="M174.745 0L0 174.745" class="cls-3" transform="translate(143.437)"/>
            <path id="선_33" d="M174.745 0L0 174.745" class="cls-3" transform="translate(184.874)"/>
            <path id="선_15" d="M174.745 0L0 174.745" class="cls-3" transform="translate(81.812)"/>
            <path id="선_42" d="M174.745 0L0 174.745" class="cls-3" transform="translate(34)"/>
            <path id="선_19" d="M174.745 0L0 174.745" class="cls-3" transform="translate(123.249)"/>
            <path id="선_25" d="M174.745 0L0 174.745" class="cls-3" transform="translate(164.687)"/>
        </g>
        <g id="그룹_2449" transform="rotate(-14.98 3506.774 -4633.041)">
            <path id="선_12-2" d="M174.745 0L0 174.745" class="cls-3" transform="translate(47.812)"/>
            <path id="선_37-2" d="M174.745 0L0 174.745" class="cls-3"/>
            <path id="선_23-2" d="M174.745 0L0 174.745" class="cls-3" transform="translate(95.624)"/>
            <path id="선_29-2" d="M174.745 0L0 174.745" class="cls-3" transform="translate(130.687)"/>
            <path id="선_35-2" d="M174.745 0L0 174.745" class="cls-3" transform="translate(171.061)"/>
            <path id="선_17-2" d="M174.745 0L0 174.745" class="cls-3" transform="translate(68)"/>
            <path id="선_40-2" d="M174.745 0L0 174.745" class="cls-3" transform="translate(20.187)"/>
            <path id="선_20-2" d="M174.745 0L0 174.745" class="cls-3" transform="translate(109.437)"/>
            <path id="선_26-2" d="M174.745 0L0 174.745" class="cls-3" transform="translate(157.249)"/>
            <path id="선_32-2" d="M174.745 0L0 174.745" class="cls-3" transform="translate(192.311)"/>
            <path id="선_36-2" d="M174.745 0L0 174.745" class="cls-3" transform="translate(198.686)"/>
            <path id="선_13-2" d="M174.745 0L0 174.745" class="cls-3" transform="translate(55.25)"/>
            <path id="선_38-2" d="M174.745 0L0 174.745" class="cls-3" transform="translate(6.375)"/>
            <path id="선_22-2" d="M174.745 0L0 174.745" class="cls-3" transform="translate(89.249)"/>
            <path id="선_43-2" d="M174.745 0L0 174.745" class="cls-3" transform="translate(41.437)"/>
            <path id="선_28-2" d="M174.745 0L0 174.745" class="cls-3" transform="translate(137.062)"/>
            <path id="선_34-2" d="M174.745 0L0 174.745" class="cls-3" transform="translate(178.499)"/>
            <path id="선_16-2" d="M174.745 0L0 174.745" class="cls-3" transform="translate(75.437)"/>
            <path id="선_41-2" d="M174.745 0L0 174.745" class="cls-3" transform="translate(27.625)"/>
            <path id="선_18-2" d="M174.745 0L0 174.745" class="cls-3" transform="translate(116.874)"/>
            <path id="선_24-2" d="M174.745 0L0 174.745" class="cls-3" transform="translate(150.874)"/>
            <path id="선_14-2" d="M174.745 0L0 174.745" class="cls-3" transform="translate(61.625)"/>
            <path id="선_39-2" d="M174.745 0L0 174.745" class="cls-3" transform="translate(13.812)"/>
            <path id="선_21-2" d="M174.745 0L0 174.745" class="cls-3" transform="translate(103.062)"/>
            <path id="선_27-2" d="M174.745 0L0 174.745" class="cls-3" transform="translate(143.437)"/>
            <path id="선_33-2" d="M174.745 0L0 174.745" class="cls-3" transform="translate(184.874)"/>
            <path id="선_15-2" d="M174.745 0L0 174.745" class="cls-3" transform="translate(81.812)"/>
            <path id="선_42-2" d="M174.745 0L0 174.745" class="cls-3" transform="translate(34)"/>
            <path id="선_19-2" d="M174.745 0L0 174.745" class="cls-3" transform="translate(123.249)"/>
            <path id="선_25-2" d="M174.745 0L0 174.745" class="cls-3" transform="translate(164.687)"/>
        </g>
        <g id="그룹_2448" transform="rotate(-14.98 3339.357 -3357.721)">
            <path id="선_12-3" d="M174.745 0L0 174.745" class="cls-3" transform="translate(47.812)"/>
            <path id="선_37-3" d="M174.745 0L0 174.745" class="cls-3"/>
            <path id="선_23-3" d="M174.745 0L0 174.745" class="cls-3" transform="translate(95.624)"/>
            <path id="선_29-3" d="M174.745 0L0 174.745" class="cls-3" transform="translate(130.687)"/>
            <path id="선_35-3" d="M174.745 0L0 174.745" class="cls-3" transform="translate(171.061)"/>
            <path id="선_17-3" d="M174.745 0L0 174.745" class="cls-3" transform="translate(68)"/>
            <path id="선_40-3" d="M174.745 0L0 174.745" class="cls-3" transform="translate(20.187)"/>
            <path id="선_20-3" d="M174.745 0L0 174.745" class="cls-3" transform="translate(109.437)"/>
            <path id="선_26-3" d="M174.745 0L0 174.745" class="cls-3" transform="translate(157.249)"/>
            <path id="선_32-3" d="M174.745 0L0 174.745" class="cls-3" transform="translate(192.311)"/>
            <path id="선_36-3" d="M174.745 0L0 174.745" class="cls-3" transform="translate(198.686)"/>
            <path id="선_13-3" d="M174.745 0L0 174.745" class="cls-3" transform="translate(55.25)"/>
            <path id="선_38-3" d="M174.745 0L0 174.745" class="cls-3" transform="translate(6.375)"/>
            <path id="선_22-3" d="M174.745 0L0 174.745" class="cls-3" transform="translate(89.249)"/>
            <path id="선_43-3" d="M174.745 0L0 174.745" class="cls-3" transform="translate(41.437)"/>
            <path id="선_28-3" d="M174.745 0L0 174.745" class="cls-3" transform="translate(137.062)"/>
            <path id="선_34-3" d="M174.745 0L0 174.745" class="cls-3" transform="translate(178.499)"/>
            <path id="선_16-3" d="M174.745 0L0 174.745" class="cls-3" transform="translate(75.437)"/>
            <path id="선_41-3" d="M174.745 0L0 174.745" class="cls-3" transform="translate(27.625)"/>
            <path id="선_18-3" d="M174.745 0L0 174.745" class="cls-3" transform="translate(116.874)"/>
            <path id="선_24-3" d="M174.745 0L0 174.745" class="cls-3" transform="translate(150.874)"/>
            <path id="선_14-3" d="M174.745 0L0 174.745" class="cls-3" transform="translate(61.625)"/>
            <path id="선_39-3" d="M174.745 0L0 174.745" class="cls-3" transform="translate(13.812)"/>
            <path id="선_21-3" d="M174.745 0L0 174.745" class="cls-3" transform="translate(103.062)"/>
            <path id="선_27-3" d="M174.745 0L0 174.745" class="cls-3" transform="translate(143.437)"/>
            <path id="선_33-3" d="M174.745 0L0 174.745" class="cls-3" transform="translate(184.874)"/>
            <path id="선_15-3" d="M174.745 0L0 174.745" class="cls-3" transform="translate(81.812)"/>
            <path id="선_42-3" d="M174.745 0L0 174.745" class="cls-3" transform="translate(34)"/>
            <path id="선_19-3" d="M174.745 0L0 174.745" class="cls-3" transform="translate(123.249)"/>
            <path id="선_25-3" d="M174.745 0L0 174.745" class="cls-3" transform="translate(164.687)"/>
        </g>
    </g>
</svg>
