<svg xmlns="http://www.w3.org/2000/svg" width="380.125" height="350.738" viewBox="0 0 380.125 350.738">
    <defs>
        <clipPath id="clip-path">
            <path id="사각형_1941" d="M0 0H380V335H0z" class="cls-1" transform="translate(760 487)"/>
        </clipPath>
        <clipPath id="clip-path-2">
            <path id="사각형_1968" d="M0 0H143V286H0z" class="cls-1" transform="translate(848.204 524.706)"/>
        </clipPath>
        <style>
            .cls-1,.cls-5{fill:#fff}.cls-1{stroke:#707070}.cls-8{fill:#a290fe}
        </style>
    </defs>
    <g id="bg" transform="translate(-760 -471.262)">
        <path id="사각형_1742" fill="#f3e9ff" d="M0 0H380V350H0z" transform="translate(760 472)"/>
        <g id="마스크_그룹_15" clip-path="url(#clip-path)">
            <g id="그룹_3441" transform="rotate(-8 4404.917 -6886.709)">
                <path id="패스_8183" fill="#e6d1ff" d="M579.1 463.52c-2.27 34.189-23.6 232.607-213.391 246.033 0 0-19.582-134.241 209.207-248.823a2.9 2.9 0 0 1 4.184 2.79z" transform="translate(-365.29 -460.419)"/>
                <path id="패스_8184" d="M592.9 562.53c-4.973 9.732-10.152 19.372-15.41 28.959s-10.638 19.112-16.123 28.574q-16.452 28.383-34.315 55.908c-11.967 18.3-24.471 36.251-37.917 53.468q-10.043 12.944-21.01 25.109a274.383 274.383 0 0 1-23.172 23.023 1.173 1.173 0 1 0 1.54 1.77A276.644 276.644 0 0 0 469.74 756q10.966-12.274 20.977-25.333c13.4-17.347 25.84-35.4 37.733-53.791s23.187-37.156 34.068-56.153q8.162-14.248 15.989-28.682c5.214-9.625 10.344-19.291 15.277-29.071a.5.5 0 0 0-.886-.45z" class="cls-5" transform="translate(-402.279 -533.656)"/>
            </g>
            <g id="그룹_3442" transform="rotate(-125.03 663.737 263.688)">
                <path id="패스_8185" fill="#d5ccff" d="M267.419 130.724a2.2 2.2 0 0 1-2.766 3.247c-19.757-9.9-72.378-34.231-112.1-34.165C87.866 99.913 10.944 69.177 0 21.479c0 0 122.6-93.372 267.419 109.245z"/>
                <path id="패스_8186" d="M216.95 83.556c-.443-.317-.982-.653-1.486-.98l-1.548-.97L210.8 79.7q-3.13-1.893-6.284-3.746-6.314-3.7-12.711-7.25-12.776-7.134-25.816-13.777c-17.4-8.816-35.067-17.111-53.125-24.47-9.041-3.642-18.115-7.21-27.322-10.409s-18.487-6.182-27.878-8.782c-1.167-.351-2.344-.663-3.523-.967l-3.541-.93-3.53-.928c-1.182-.294-2.371-.557-3.556-.838-2.375-.539-4.739-1.134-7.124-1.628l-7.164-1.44A280.044 280.044 0 0 0 .272.586.293.293 0 0 1 .309 0a257.291 257.291 0 0 1 29.136 3.34l7.21 1.36c2.4.466 4.781 1.034 7.172 1.546 1.193.267 2.391.516 3.581.8l3.559.887 3.56.888c1.188.291 2.374.59 3.549.927a473.642 473.642 0 0 1 55.456 19.07c9.051 3.7 17.977 7.695 26.841 11.814s17.634 8.442 26.287 12.986 17.244 9.2 25.7 14.092q6.34 3.676 12.6 7.481c2.082 1.278 4.163 2.557 6.226 3.866l3.082 1.984 1.531 1.01c.51.352 1.005.665 1.541 1.078a.291.291 0 0 1-.346.467z" class="cls-5" transform="translate(24.72 30.346)"/>
            </g>
        </g>
        <path id="패스_7569" fill="#dabdfb" d="M760 556.79s44.623 3.6 85.315-8.848 57.338-55.38 116.989-61.934 74.263-14.449 74.263-14.449L760 471.262z"/>
        <path id="패스_7570" d="M882.845 471.273l257.28.727-.358 27.152s-37.589-15.238-75.178 0-75.414-16.807-135.116-11.175-97.533-16.7-97.533-16.7z" class="cls-8"/>
        <g id="마스크_그룹_22" clip-path="url(#clip-path-2)" transform="translate(-88.204 -18.707)">
            <g id="그룹_3567" transform="rotate(-161 460.813 353.314)">
                <path id="패스_8441" d="M.078 294.514a2.279 2.279 0 0 0 3.68 2.293c17.15-14.442 58.847-58.214 53.417-138.947C50.363 56.568 73.313 20.985 100.618 0c0 0-36.4 8.592-60.965 44.63C-20.653 133.112 9.951 256.517.078 294.514z" class="cls-8" transform="translate(0 2.021)"/>
                <path id="패스_8442" d="M.016 256.827c2.648-11.092 5.076-22.23 7.094-33.441q3.114-16.8 5.193-33.749c1.339-11.3 2.465-22.62 3.109-33.974.695-11.349.9-22.716 1.069-34.129.231-11.405.4-22.9 1.744-34.406a115.683 115.683 0 0 1 8.8-33.67c1.186-2.66 2.425-5.308 3.808-7.857 1.336-2.576 2.787-5.093 4.282-7.583A119.951 119.951 0 0 1 70.888.386a2.2 2.2 0 0 1 2.544 3.6l-.007.005C71.149 5.646 68.9 7.325 66.723 9.1c-1.1.87-2.16 1.787-3.236 2.683-1.041.936-2.119 1.832-3.129 2.8A116.246 116.246 0 0 0 48.9 26.811 127.383 127.383 0 0 0 31.473 55.4a110.967 110.967 0 0 0-5.484 15.8 125.876 125.876 0 0 0-3.126 16.5c-1.391 11.166-1.652 22.539-1.965 33.942s-.736 22.864-1.615 34.288q-.636 8.569-1.579 17.109c-.3 2.848-.651 5.689-1 8.531q-.563 4.258-1.18 8.506-2.513 16.988-6.07 33.784c-2.427 11.178-5.15 22.288-8.3 33.274a.591.591 0 0 1-1.144-.3z" transform="translate(12.766)" style="mix-blend-mode:soft-light;isolation:isolate" fill="#fff"/>
            </g>
        </g>
    </g>
</svg>
