<svg xmlns="http://www.w3.org/2000/svg" xmlns:xlink="http://www.w3.org/1999/xlink" width="1920" height="580" viewBox="0 0 1920 580">
    <defs>
        <linearGradient id="linear-gradient" x1="-59.061" x2="-60.061" y1=".5" y2=".5" gradientUnits="objectBoundingBox">
            <stop offset="0" stop-color="#09005d"/>
            <stop offset="1" stop-color="#1a0f91"/>
        </linearGradient>
        <linearGradient id="linear-gradient-2" x1="1" x2="0" y1=".5" y2=".5" gradientUnits="objectBoundingBox">
            <stop offset="0" stop-color="#febbba"/>
            <stop offset="1" stop-color="#ff928e"/>
        </linearGradient>
        <linearGradient id="linear-gradient-3" x1="-40.352" x2="-41.352" y1=".5" y2=".5" xlink:href="#linear-gradient"/>
        <linearGradient id="linear-gradient-5" x1="-.871" x2=".865" y1="-.957" y2="1.041" xlink:href="#linear-gradient"/>
        <linearGradient id="linear-gradient-6" x1=".392" x2=".491" y1="-4.003" y2=".107" gradientUnits="objectBoundingBox">
            <stop offset="0" stop-color="#4f52ff"/>
            <stop offset="1" stop-color="#4042e2"/>
        </linearGradient>
        <linearGradient id="linear-gradient-7" x1="-.731" x2="-.058" y1="-6.56" y2="-2.791" gradientUnits="objectBoundingBox">
            <stop offset="0" stop-color="#ff928e"/>
            <stop offset="1" stop-color="#fe7062"/>
        </linearGradient>
        <linearGradient id="linear-gradient-9" x1="-.37" x2=".025" y1="-1.896" y2="-.722" xlink:href="#linear-gradient-7"/>
        <linearGradient id="linear-gradient-12" x1="-30.508" x2="-31.552" y1="30.734" y2="30.734" xlink:href="#linear-gradient"/>
        <clipPath id="clip-path">
            <path id="사각형_2036" d="M0 0H1920V580H0z" class="cls-1" transform="translate(0 80)"/>
        </clipPath>
        <style>
            .cls-1{fill:#f3e9ff}.cls-4{fill:#dabdfb}.cls-5{fill:#fff;mix-blend-mode:soft-light;isolation:isolate}.cls-6{fill:#a290fe}.cls-8{fill:url(#linear-gradient-2)}.cls-16{fill:#f4bf1a}.cls-17{fill:#dca815}.cls-18{fill:#5b2b94}.cls-19{fill:#36135e}.cls-20{fill:#0e031c}.cls-21{fill:#0d001c}.cls-22{fill:#e66526}
        </style>
    </defs>
    <g id="마스크_그룹_23" clip-path="url(#clip-path)" transform="translate(0 -80)">
        <path id="사각형_2033" d="M0 0H1920V580H0z" class="cls-1" transform="translate(0 80)"/>
        <path id="패스_8616" fill="#dabdfb" d="M1719.506 2536.739q136.928-1.2 273.751-4.094c25.432-.574 149.391 4.428 153.866-8.049 2.728-7.6-9.056-14.563-20.121-20.442l-140.293-74.546c-15.249-8.1-31.523-16.535-53.689-20.172-39.391-6.464-85.064 4.1-124.5-2.313-24.637-4.007-41.785-13.822-60.051-22.274s-42.235-16.372-68.18-14.74c-23.149 1.455-40.391 10.02-60.808 15.141-46.355 11.628-105.671 4.419-150.218-8.561-28.678-8.356-58.179-20.613-92.89-23.4-35.712-2.866-52.364 10.273-85.5 14.018-27.485 3.106-53.133 2.369-81.452 6.807l-246.767 38.674c-38.712 6.068-77.531 12.284-114.167 20.641-50.033 11.416-131.059 63.708-89.017 94.38 27.407 20 79.641-4.513 130.873 0 134.279 11.829 272.2 11.4 409.023 10.928l113.153-.392c102.313-.351 204.673-.706 306.987-1.606z" opacity="0.44" transform="translate(381.876 -1811.374)"/>
        <g id="그룹_2841" transform="rotate(-171 811.59 259.428)">
            <g id="그룹_2840">
                <path id="패스_7473" d="M84.321 5.343C82.365-.227 75.872-1.79 71.93 2.316 50.179 24.971-6.051 95.139 1.781 208.545 8.4 304.311 3.706 356.93.073 380.655c-.768 5.017 4.734 8.2 8.061 4.662C44.845 346.322 155.2 207.17 84.321 5.343z" class="cls-4"/>
                <path id="패스_7474" d="M47.774.363a2.044 2.044 0 0 0-.366-.2 2.064 2.064 0 0 0-2.745 1.324C44.18 2.845-3.52 138.985.208 272.6a2.219 2.219 0 0 0 2.184 2.259 2.25 2.25 0 0 0 2.054-2.4C.745 139.814 48.133 4.53 48.612 3.179a2.457 2.457 0 0 0-.838-2.816z" class="cls-5" transform="translate(29.197 5.103)"/>
            </g>
        </g>
        <g id="그룹_2839" transform="rotate(-161 872.066 200.971)">
            <path id="패스_7471" d="M.128 486.617a3.765 3.765 0 0 0 6.081 3.789c28.336-23.863 97.231-96.185 88.26-229.578C83.213 93.465 121.132 34.672 166.247 0c0 0-60.148 14.2-100.731 73.741C-34.124 219.937 16.442 423.836.128 486.617z" class="cls-6" transform="translate(0 3.34)"/>
            <path id="패스_7472" d="M.026 424.347c4.376-18.327 8.388-36.73 11.721-55.253q5.144-27.755 8.581-55.763c2.212-18.668 4.073-37.375 5.137-56.134 1.148-18.752 1.489-37.533 1.767-56.39.382-18.845.66-37.832 2.882-56.848 2.2-18.978 6.7-38 14.544-55.633 1.96-4.395 4.007-8.771 6.293-12.982 2.208-4.256 4.6-8.415 7.075-12.53a198.192 198.192 0 0 1 59.1-62.176 3.642 3.642 0 0 1 4.2 5.947l-.011.008c-3.761 2.735-7.486 5.509-11.074 8.44-1.818 1.437-3.568 2.952-5.346 4.433-1.72 1.547-3.5 3.027-5.171 4.626A192.07 192.07 0 0 0 80.795 44.3 210.472 210.472 0 0 0 52 91.534a183.348 183.348 0 0 0-9.061 26.1 207.981 207.981 0 0 0-5.165 27.26c-2.3 18.45-2.729 37.24-3.247 56.081-.542 18.845-1.216 37.778-2.668 56.654q-1.049 14.157-2.607 28.271c-.492 4.705-1.075 9.4-1.649 14.095q-.93 7.035-1.949 14.055-4.153 28.069-10.029 55.82c-4.01 18.469-8.51 36.826-13.708 54.977a.977.977 0 0 1-1.89-.5z" class="cls-5" transform="translate(21.092)"/>
        </g>
        <path id="패스_7475" d="M1646.11 2680.353c84.391-1.429 168.772-3.624 253.075-7.292 23.511-1.022 138.107 7.887 142.244-14.337 2.522-13.545-8.372-25.938-18.6-36.41l-129.7-132.775c-14.1-14.431-29.142-29.452-49.634-35.928-36.416-11.513-78.639 7.3-115.094-4.12-22.776-7.137-38.629-24.618-55.515-39.674s-39.045-29.16-63.031-26.254c-21.4 2.592-37.341 17.847-56.215 26.968-42.854 20.712-97.689 7.871-138.872-15.248-26.512-14.883-53.784-36.714-85.874-41.677-33.014-5.1-48.409 18.3-79.041 24.968-25.409 5.532-49.119 4.219-75.3 12.124l-228.129 68.883c-35.788 10.809-71.675 21.879-105.544 36.764-46.254 20.333-121.16 113.473-82.294 168.1 25.337 35.615 73.625-8.039 120.988 0 124.136 21.07 251.641 20.305 378.129 19.464l104.607-.7c94.59-.622 189.214-1.253 283.8-2.856z" class="cls-4" transform="translate(-708.629 -1928.885)"/>
        <path id="패스_7476" d="M1446.575 2839.579c118.624-1.5 285.935 45.979 401.391 12.571 11.7-3.385 25.1-9.163 27.461-21.11 3.636-18.428-20.69-28.326-39.3-30.859-47.793-6.506-138.208-45.632-186-52.137-29.187-3.973-58.442-7.958-87.019-15.1-25.929-6.48-51.137-15.52-76.295-24.54-78.841-28.274-157.221-60.712-236.557-86.588-30.356-9.9-74.224-28.334-106.5-24.613-66.74 7.69-137.536 50.407-199.547 74.909-92.007 36.352-286.306 14.1-402.764 88.877-18.553 7.331-56.027 53.134-39.778 75.389 10.822 14.822 173.114 5.186 190.65 4.74 85.246-2.16 170.406-6.682 255.606-10.077 85.938-3.425 168.928 1.509 254.709 5.337 81.282 3.622 162.614 4.232 243.943 3.201z" class="cls-6" transform="translate(-509.732 -2136.542)"/>
        <g id="그룹_2846" transform="translate(1080.941 179.091)">
            <g id="그룹_2845">
                <path id="패스_7478" fill="url(#linear-gradient)" d="M2475.443 3108.271s-2.955 4.656-3.7 17.7a2.124 2.124 0 0 0 2.112 2.249h23.109a1.362 1.362 0 0 0 1.3-1.792c-1.354-4.007-5.449-13.78-14.585-19.364z" transform="translate(-2467.737 -2647.308)"/>
                <path id="패스_7479" d="M2530.786 3068.447l1.306 10.96a2.061 2.061 0 0 0 1.8 1.811 18.2 18.2 0 0 0 4.886-.047 3.385 3.385 0 0 0 2.792-3.358v-10.581z" class="cls-8" transform="translate(-2524.084 -2616.32)"/>
                <path id="패스_7480" fill="url(#linear-gradient-3)" d="M2153.218 3107.062a32.272 32.272 0 0 0-4.329 16.313 4.082 4.082 0 0 0 4.106 3.992h35.891a1.718 1.718 0 0 0 .988-3.126c-6.791-4.768-20.141-13.678-29.8-17.179z" transform="translate(-2088.336 -2647.308)"/>
                <path id="패스_7481" d="M2285.646 3035.328l2.788 13.536a2.792 2.792 0 0 0 3.3 2.195 10.078 10.078 0 0 0 3.155-1.319 3.2 3.2 0 0 0 1.432-3.27l-2.884-16.4z" class="cls-8" transform="translate(-2224.461 -2587.409)"/>
                <path id="패스_7482" fill="url(#linear-gradient-5)" d="M2292.042 2206.1s-9.693 8.545-11.519 18.827 5.17 177.4 5.17 177.4 9.692 1.612 14.689-1.415c0 0 5.927-108.458 10.432-133.521 0 0 23.625 112.349 30.17 132.649 0 0 9.339 1.137 12.351-.641 0 0-6.188-145.635-13.965-171.528z" transform="translate(-2280.22 -1946.374)"/>
                <path id="패스_7483" fill="url(#linear-gradient-6)" d="M2482.612 2383.773a.972.972 0 0 0 .939-1.219l-4.117-15.794a.977.977 0 0 0-.416-.573l-8.9-5.708a.972.972 0 1 0-1.051 1.637l8.577 5.5 4.022 15.426a.973.973 0 0 0 .946.731z" transform="translate(-2452.296 -2066.357)"/>
                <path id="패스_7484" fill="url(#linear-gradient-7)" d="M2010.4 1756.813c-40.806-3.387-51.472 5.057-51.472 5.057l19.611 30.959s40.1-.792 68.827-22.937a70.134 70.134 0 0 1-11.507-17.173 54.03 54.03 0 0 1-25.459 4.094z" transform="translate(-1902.915 -1593.649)"/>
                <path id="패스_7485" d="M1869.666 1497.159a1.251 1.251 0 0 0-2.383-.478l-5.207 11.111a11.581 11.581 0 0 0-.923 6.887l1.826 6.468a11.163 11.163 0 0 1-2.277 8.884c-4.784 5.981-14.974 16.906-29.48 22.933a70.124 70.124 0 0 0 11.507 17.174 70.386 70.386 0 0 0 24.494-34.012 5.462 5.462 0 0 0 3.853-5.428z" class="cls-8" transform="translate(-1698.281 -1393.894)"/>
                <path id="패스_7486" fill="url(#linear-gradient-9)" d="M2006.369 1762.359c-14.365-15.479-41.729-22.473-57.572-25.345a14.533 14.533 0 0 0-16.242 9.215c-7.129 19.165-26.518 69.024-30.276 77.594-3.083 7.031-6.3 13.9-8.349 18.189a5.154 5.154 0 0 0 2.405 6.866c13.329 6.425 37.313 13.693 47.036 16.529a3.336 3.336 0 0 0 4.269-3.21 10.435 10.435 0 0 1 1.486-5.364l36.825-61.365c22.953 25.45 43.053 27.777 58.494 22.206a116.2 116.2 0 0 1-5.111-24.117c-22.811-3.907-32.965-31.198-32.965-31.198z" transform="translate(-1885.455 -1581.246)"/>
                <path id="패스_7489" d="M2151.651 1609.793l-12.238 29.861s14.06 9.731 25.373 8.805l6.107-26.85z" class="cls-8" transform="translate(-2066.516 -1482.455)"/>
                <g id="그룹_2844" transform="translate(75.382 93.183)">
                    <path id="패스_7490" d="M2114.524 1511.954c.28.4 8.853 31.366 8.853 31.366l-17.787 4.518-12.485-28.145s16.727-14.387 21.419-7.739z" class="cls-8" transform="translate(-2084.101 -1498.156)"/>
                    <path id="패스_7491" fill="url(#linear-gradient-12)" d="M2095.764 1481.767l5.413 15.33a2.272 2.272 0 0 0 .282.55c.735 1.044 3.525 4.449 6.835 1.381 3-2.783 5.786-5.278 8.354-5.731a2.27 2.27 0 0 1 2.584 1.63 98.058 98.058 0 0 1 2.991 14.942 2.265 2.265 0 0 1-1.843 2.441c-3.474.66-10.839 1.846-16.989 1.413a2.273 2.273 0 0 1-1.914-1.318c-1.7-3.7-6.887-14.939-8.818-17.846-1.813-2.728-6.256-2.652-8.119-2.487a2.229 2.229 0 0 1-1.673-.547c-1.63-1.429-4.733-5.078-.368-9.445a2.276 2.276 0 0 0-.053-3.274c-1.874-1.762-3.878-4.887-.756-8.763 3.173-3.941 7.363-3.314 9.93-2.376a2.273 2.273 0 0 0 2.734-1.01 1.8 1.8 0 0 1 1.855-.867 2.236 2.236 0 0 0 2.385-2.294c-.045-2.524.859-5.713 5.238-7.076 7.77-2.418 12.615 5.088 13.1 10.69s-8.094 7.744-13.135 7.367c-3.833-.287-6.679 3.511-7.823 5.35a2.252 2.252 0 0 0-.21 1.94z" transform="translate(-2080.064 -1455.953)"/>
                    <path id="패스_7492" d="M2215.089 1618.991s-1.255-9.724-5.3-10.2-7.982 2.848-3.962 8.306c5.004 6.789 9.262 1.894 9.262 1.894z" class="cls-8" transform="translate(-2200.466 -1574.823)"/>
                </g>
                <g id="XMLID_100_" transform="rotate(-27 222.466 -203.904)">
                    <path id="XMLID_99_" fill="#ffd949" d="M77.293 176.669C34.6 176.669 0 137.12 0 88.334S34.6 0 77.293 0s77.293 39.549 77.293 88.334-34.6 88.334-77.293 88.334" transform="translate(18.929)"/>
                    <path id="XMLID_132_" d="M18.929 88.334c0-45.12 29.608-82.315 67.828-87.653A68.55 68.55 0 0 0 77.293 0C34.6 0 0 39.549 0 88.334s34.6 88.334 77.293 88.334a68.552 68.552 0 0 0 9.464-.681c-38.22-5.338-67.828-42.533-67.828-87.653" class="cls-16"/>
                    <path id="XMLID_115_" d="M62.84 142.117h-.271a56.221 56.221 0 0 1-6.609-.391 3.155 3.155 0 1 1 .748-6.265 49.672 49.672 0 0 0 5.862.347 3.273 3.273 0 0 1 3.29 3.155 3.039 3.039 0 0 1-3.019 3.155m18.345-3.4a3.155 3.155 0 0 1-1.114-6.108 51.878 51.878 0 0 0 5.382-2.388 3.154 3.154 0 1 1 2.88 5.612 58.634 58.634 0 0 1-6.038 2.678 3.1 3.1 0 0 1-1.11.205m-42.7-2.41a3.132 3.132 0 0 1-1.426-.344 60.149 60.149 0 0 1-5.707-3.306 3.155 3.155 0 1 1 3.458-5.278 53.419 53.419 0 0 0 5.1 2.959 3.156 3.156 0 0 1-1.429 5.969m63.443-11.225a3.155 3.155 0 0 1-2.24-5.376 59.355 59.355 0 0 0 3.966-4.423 3.155 3.155 0 0 1 4.9 3.981c-1.391 1.71-2.865 3.354-4.382 4.884a3.157 3.157 0 0 1-2.24.934m-82.712-4.442a3.16 3.16 0 0 1-2.442-1.152c-1.369-1.672-2.685-3.439-3.906-5.253a3.155 3.155 0 1 1 5.231-3.53c1.114 1.653 2.309 3.262 3.555 4.78a3.153 3.153 0 0 1-2.439 5.155m96.584-16.204a3.156 3.156 0 0 1-2.893-4.417c.792-1.811 1.514-3.691 2.148-5.581a3.156 3.156 0 1 1 5.981 2.013c-.694 2.06-1.483 4.111-2.344 6.089a3.166 3.166 0 0 1-2.893 1.9M7.19 98.862a3.164 3.164 0 0 1-2.99-2.139c-.7-2.044-1.316-4.149-1.839-6.256a3.154 3.154 0 0 1 6.12-1.524c.483 1.934 1.051 3.868 1.691 5.742a3.155 3.155 0 0 1-1.965 4 3.1 3.1 0 0 1-1.019.174m114.566-18.6q-.123 0-.246-.009a3.158 3.158 0 0 1-2.9-3.391c.148-1.912.224-3.865.224-5.8a3.244 3.244 0 0 1 3.155-3.256 3.069 3.069 0 0 1 3.155 3.051v.205c0 2.1-.082 4.212-.243 6.287a3.156 3.156 0 0 1-3.142 2.912m-118.6-6.01A3.126 3.126 0 0 1 0 71.128v-.069c0-2.152.085-4.316.252-6.426a3.155 3.155 0 1 1 6.291.5c-.155 1.95-.233 3.943-.233 5.928a3.186 3.186 0 0 1-3.155 3.189M119.68 55.436a3.152 3.152 0 0 1-3.054-2.382c-.489-1.94-1.06-3.871-1.7-5.745a3.155 3.155 0 0 1 5.969-2.044c.7 2.038 1.322 4.139 1.852 6.243a3.155 3.155 0 0 1-2.287 3.83 2.942 2.942 0 0 1-.776.1M7.149 49.7a3.164 3.164 0 0 1-2.991-4.171c.7-2.051 1.489-4.1 2.357-6.082a3.155 3.155 0 1 1 5.785 2.531c-.8 1.82-1.524 3.7-2.161 5.581a3.162 3.162 0 0 1-2.99 2.141m102.436-17.01a3.151 3.151 0 0 1-2.615-1.39c-1.117-1.647-2.316-3.253-3.565-4.77a3.156 3.156 0 0 1 4.871-4.013c1.372 1.669 2.691 3.432 3.918 5.246a3.155 3.155 0 0 1-2.609 4.925m-90.461-4.8a3.155 3.155 0 0 1-2.439-5.152c1.391-1.7 2.868-3.344 4.388-4.874a3.155 3.155 0 0 1 4.477 4.448c-1.375 1.385-2.716 2.871-3.981 4.42a3.134 3.134 0 0 1-2.445 1.158m72.819-12.71a3.121 3.121 0 0 1-1.716-.511 53.666 53.666 0 0 0-5.117-2.947 3.155 3.155 0 0 1 2.846-5.631 59.214 59.214 0 0 1 5.713 3.29 3.155 3.155 0 0 1-1.726 5.8m-53.572-3a3.155 3.155 0 0 1-1.435-5.966 58.309 58.309 0 0 1 6.045-2.663 3.154 3.154 0 1 1 2.208 5.909 51.625 51.625 0 0 0-5.389 2.378 3.123 3.123 0 0 1-1.426.344m30.3-5.518a2.9 2.9 0 0 1-.369-.022 49.874 49.874 0 0 0-5.739-.331 3.213 3.213 0 0 1-3.221-3.155A3.1 3.1 0 0 1 62.437 0h.132a56.106 56.106 0 0 1 6.467.375 3.154 3.154 0 0 1-.36 6.288" class="cls-16" transform="translate(33.649 17.276)"/>
                    <path id="XMLID_114_" d="M18.922 0H0c.063 2.123.183 4.227.375 6.31h18.939Q19.02 3.186 18.922 0" class="cls-17" transform="translate(0 91.489)"/>
                    <path id="XMLID_113_" d="M19.5 0H.58C.319 2.079.129 4.186 0 6.31h18.926c.133-2.123.309-4.231.571-6.31" class="cls-17" transform="translate(.148 75.715)"/>
                    <path id="XMLID_112_" d="M18.932 0H0q.615 3.2 1.423 6.31h18.925Q19.544 3.2 18.932 0" class="cls-17" transform="translate(1.726 107.263)"/>
                    <path id="XMLID_111_" d="M18.941 0H0c.8 2.152 1.694 4.25 2.641 6.31h18.931Q20.153 3.224 18.941 0" class="cls-17" transform="translate(6.13 123.037)"/>
                    <path id="XMLID_110_" d="M20.576 0H1.669C1.054 2.073.48 4.171 0 6.31h18.951c.48-2.133 1.013-4.243 1.625-6.31" class="cls-17" transform="translate(2.366 59.941)"/>
                    <path id="XMLID_109_" d="M21.847 0H2.918C1.877 2.054.9 4.155 0 6.31h18.941Q20.285 3.082 21.847 0" class="cls-17" transform="translate(7.379 44.167)"/>
                    <path id="XMLID_108_" d="M24.068 0H5.117Q2.424 3.01 0 6.31h18.945q2.428-3.3 5.123-6.31" class="cls-17" transform="translate(18.033 25.238)"/>
                    <path id="XMLID_107_" d="M28.232 0H9.262A75.867 75.867 0 0 0 0 6.31h18.957A76.005 76.005 0 0 1 28.232 0" class="cls-17" transform="translate(33.16 9.464)"/>
                    <path id="XMLID_106_" d="M18.938 0H0q2.2 3.279 4.644 6.31h18.951Q21.143 3.281 18.938 0" class="cls-17" transform="translate(15.824 141.966)"/>
                    <path id="XMLID_105_" d="M0 0a78.246 78.246 0 0 0 7.963 6.31h18.973A77.622 77.622 0 0 1 18.922 0z" class="cls-17" transform="translate(29.441 157.74)"/>
                </g>
            </g>
            <path id="패스_7487" d="M1761.815 1937.742l-7.457-4.359c-13.328 9.153-27.549 14.695-36.67 13.132a116.2 116.2 0 0 0 5.11 24.117c20.343-7.338 39.017-32.89 39.017-32.89z" class="cls-8" transform="translate(-1563.809 -1734.203)"/>
            <path id="패스_7488" d="M1601.416 1903.933c-4.637-2.525-18.4-4.695-18.4-4.695s-15.818-9.254-20.372-11.076c-3.781-1.513-5.41 4.143-5.852 6.1-.091.4-.131.646-.131.646l.585 3.761 15.979 7.1a20.35 20.35 0 0 0 10.907 1.582l17.062-2.232a.637.637 0 0 0 .221-1.192z" class="cls-8" transform="translate(-1367.993 -1698.824)"/>
        </g>
        <g id="그룹_3770" transform="translate(1281.169 413.312)">
            <path id="사각형_1994" d="M0 0H166.486V227.608H0z" class="cls-18" transform="translate(46.472 10.257)"/>
            <path id="사각형_1995" d="M0 0H64.815V227.608H0z" class="cls-19" transform="translate(212.527 10.257)"/>
            <rect id="사각형_1996" width="247.844" height="14.795" class="cls-19" rx="2.367" transform="translate(36.056)"/>
            <path id="패스_8571" d="M426.985 334.161v-1.57a6.613 6.613 0 0 0-6.612-6.612h69.2a6.613 6.613 0 0 1 6.612 6.612v1.57a6.611 6.611 0 0 1-6.612 6.612h-69.2a6.611 6.611 0 0 0 6.612-6.612z" class="cls-20" transform="translate(-212.281 -325.978)"/>
            <g id="그룹_3693" transform="translate(49.712 237.865)">
                <path id="사각형_1997" d="M0 0H19.021V8.822H0z" class="cls-18"/>
                <path id="사각형_1998" d="M0 0H19.021V8.822H0z" class="cls-18" transform="translate(140.978)"/>
            </g>
            <g id="그룹_3694" transform="translate(112.874 237.865)">
                <path id="사각형_1999" d="M0 0H19.021V8.822H0z" class="cls-20"/>
                <path id="사각형_2000" d="M0 0H19.021V8.822H0z" class="cls-20" transform="translate(140.978)"/>
            </g>
            <g id="그룹_3696" transform="translate(50.307 19.216)">
                <path id="패스_8572" d="M448.7 334.258v57.583h156.006v-57.583zm-1.4-1.4h158.805v60.382H447.3v-60.382z" class="cls-6" transform="translate(-447.297 -332.858)"/>
                <g id="그룹_3695" transform="translate(42.822 6.19)">
                    <path id="사각형_2001" d="M0 0H73.163V5.409H0z" class="cls-4"/>
                    <path id="사각형_2002" d="M0 0H73.163V1.551H0z" class="cls-21" transform="translate(0 3.857)"/>
                </g>
            </g>
            <g id="그룹_3698" transform="translate(50.307 83.791)">
                <path id="패스_8573" d="M448.7 357.474v57.583h156.006v-57.583zm-1.4-1.4h158.805v60.382H447.3v-60.381z" class="cls-6" transform="translate(-447.297 -356.075)"/>
                <g id="그룹_3697" transform="translate(42.822 6.19)">
                    <path id="사각형_2003" d="M0 0H73.163V5.409H0z" class="cls-4"/>
                    <path id="사각형_2004" d="M0 0H73.163V1.551H0z" class="cls-21" transform="translate(0 3.857)"/>
                </g>
            </g>
            <path id="패스_8574" d="M606.105 379.292v85.191H447.3v-85.191z" class="cls-19" transform="translate(-396.99 -230.988)"/>
            <g id="그룹_3700" transform="translate(0 149.363)">
                <path id="패스_8575" d="M453.909 381.392h62.05v36.73h-62.05a6.613 6.613 0 0 1-6.612-6.612V388a6.613 6.613 0 0 1 6.612-6.608z" class="cls-22" transform="translate(-306.556 -376.585)"/>
                <rect id="사각형_2005" width="77.602" height="36.729" fill="#e69926" rx="2.367" transform="translate(125.234 4.808)"/>
                <rect id="사각형_2006" width="77.602" height="36.729" class="cls-22" rx="2.367" transform="translate(114.196 4.808)"/>
                <rect id="사각형_2007" width="77.602" height="36.729" fill="#e6c026" rx="2.367" transform="translate(103.159 4.808)"/>
                <path id="사각형_2008" d="M0 0H158.808V83.473H0z" class="cls-18" transform="translate(0 .671)"/>
                <g id="그룹_3699" transform="translate(42.822 6.189)">
                    <path id="사각형_2009" d="M0 0H73.163V5.409H0z" class="cls-4"/>
                    <path id="사각형_2010" d="M0 0H73.163V1.551H0z" class="cls-21" transform="translate(0 3.858)"/>
                </g>
                <path id="패스_8576" d="M624.217 379.671v85.191H465.409v-85.191zm-157.408 83.791h156.009V381.07H466.809z" class="cls-6" transform="translate(-465.409 -379.671)"/>
                <path id="사각형_2011" d="M0 0H50.594V56.761H0z" class="cls-19" transform="translate(158.808 27.382)"/>
            </g>
        </g>
    </g>
</svg>
