<svg xmlns="http://www.w3.org/2000/svg" width="380.002" height="350.554" viewBox="0 0 380.002 350.554">
    <defs>
        <clipPath id="clip-path">
            <path id="사각형_1771" d="M0 0H181V257H0z" class="cls-1" transform="translate(637.204 553.706)"/>
        </clipPath>
        <clipPath id="clip-path-2">
            <path id="사각형_1770" d="M0 0H351V85H0z" class="cls-1" transform="translate(436.204 735.706)"/>
        </clipPath>
        <style>
            .cls-1,.cls-4{fill:#fff}.cls-1{stroke:#707070}.cls-3{fill:#dabdfb}.cls-4{mix-blend-mode:soft-light;isolation:isolate}.cls-6{fill:#a290fe}
        </style>
    </defs>
    <g id="bg" transform="translate(-360 -471.446)">
        <path id="사각형_1741" fill="#f3e9ff" d="M0 0H380V350H0z" transform="translate(360 472)"/>
        <path id="패스_7568" d="M740 508.932s-7.409 4.848-58.506-19.152S578.1 454.113 545.64 455.447s-59.512-11-59.512-11L740 445z" class="cls-3" transform="translate(0 27)"/>
        <g id="그룹_2920" transform="translate(-78.204 1.293)">
            <g id="그룹_2841" transform="rotate(-171 414.844 368.755)">
                <g id="그룹_2840">
                    <path id="패스_7473" d="M51.034 3.234a4.445 4.445 0 0 0-7.5-1.832C30.37 15.113-3.662 57.581 1.078 126.217c4 57.96 1.165 89.807-1.034 104.166-.465 3.036 2.865 4.961 4.879 2.822C27.142 209.6 93.932 125.385 51.034 3.234z" class="cls-3"/>
                    <path id="패스_7474" d="M28.914.22a1.237 1.237 0 0 0-.221-.12 1.249 1.249 0 0 0-1.661.8C26.739 1.722-2.13 84.118.126 164.984a1.343 1.343 0 0 0 1.322 1.367 1.361 1.361 0 0 0 1.243-1.451C.451 84.62 29.132 2.742 29.422 1.924A1.487 1.487 0 0 0 28.914.22z" class="cls-4" transform="translate(17.671 3.089)"/>
                </g>
            </g>
            <g id="마스크_그룹_13" clip-path="url(#clip-path)" transform="translate(0 -20)">
                <g id="그룹_2839" transform="rotate(-161 460.813 353.314)">
                    <path id="패스_7471" d="M.078 294.514a2.279 2.279 0 0 0 3.68 2.293c17.15-14.442 58.847-58.214 53.417-138.947C50.363 56.568 73.313 20.985 100.618 0c0 0-36.4 8.592-60.965 44.63C-20.653 133.112 9.951 256.517.078 294.514z" class="cls-6" transform="translate(0 2.021)"/>
                    <path id="패스_7472" d="M.016 256.827c2.648-11.092 5.076-22.23 7.094-33.441q3.114-16.8 5.193-33.749c1.339-11.3 2.465-22.62 3.109-33.974.695-11.349.9-22.716 1.069-34.129.231-11.405.4-22.9 1.744-34.406a115.683 115.683 0 0 1 8.8-33.67c1.186-2.66 2.425-5.308 3.808-7.857 1.336-2.576 2.787-5.093 4.282-7.583A119.951 119.951 0 0 1 70.888.386a2.2 2.2 0 0 1 2.544 3.6l-.007.005C71.149 5.646 68.9 7.325 66.723 9.1c-1.1.87-2.16 1.787-3.236 2.683-1.041.936-2.119 1.832-3.129 2.8A116.246 116.246 0 0 0 48.9 26.811 127.383 127.383 0 0 0 31.473 55.4a110.967 110.967 0 0 0-5.484 15.8 125.876 125.876 0 0 0-3.126 16.5c-1.391 11.166-1.652 22.539-1.965 33.942s-.736 22.864-1.615 34.288q-.636 8.569-1.579 17.109c-.3 2.848-.651 5.689-1 8.531q-.563 4.258-1.18 8.506-2.513 16.988-6.07 33.784c-2.427 11.178-5.15 22.288-8.3 33.274a.591.591 0 0 1-1.144-.3z" class="cls-4" transform="translate(12.766)"/>
                </g>
            </g>
            <g id="마스크_그룹_12" clip-path="url(#clip-path-2)" transform="translate(2)">
                <path id="패스_7475" d="M963.243 2444.3c20.425-.4 40.847-1.012 61.251-2.036 5.69-.285 33.426 2.2 34.427-4 .61-3.781-2.026-7.241-4.5-10.164l-31.39-37.063c-3.412-4.028-7.053-8.221-12.013-10.029-8.814-3.214-19.033 2.038-27.856-1.15-5.512-1.992-9.349-6.872-13.436-11.075s-9.45-8.14-15.255-7.329c-5.18.724-9.037 4.982-13.605 7.528-10.372 5.782-23.644 2.2-33.611-4.256-6.417-4.154-13.017-10.249-20.784-11.634-7.99-1.425-11.716 5.108-19.13 6.97-6.15 1.544-11.888 1.178-18.225 3.384l-55.216 19.223c-8.662 3.017-17.347 6.107-25.544 10.262-11.195 5.676-30.014 15.591-20.608 30.841 6.132 9.942 18.51 13.84 29.973 16.084 30.044 5.881 60.9 5.668 91.518 5.433l25.318-.195c22.891-.175 45.794-.351 68.686-.794z" class="cls-3" transform="translate(-341.147 -1616.91)"/>
                <path id="패스_7476" d="M862.575 2664.507c33.113-.419 79.817 12.835 112.046 3.509 3.265-.945 7.008-2.558 7.666-5.893 1.015-5.144-5.776-7.907-10.971-8.614-13.341-1.816-38.58-12.738-51.921-14.554a225.132 225.132 0 0 1-24.291-4.215c-7.238-1.809-14.275-4.332-21.3-6.85-22.008-7.893-43.887-16.948-66.034-24.171-8.474-2.763-20.719-7.909-29.729-6.871-18.63 2.147-38.392 14.071-55.7 20.91l-77.05 30.443c-5.179 2.046-11.9 4.728-7.366 10.941 3.021 4.137 9.206 5.918 14.1 5.794 23.8-.6 47.568-1.865 71.351-2.813 23.989-.956 47.155.421 71.1 1.49 22.693 1.013 45.396 1.182 68.099.894z" class="cls-6" transform="translate(-255.344 -1841.429)"/>
            </g>
        </g>
    </g>
</svg>
