<svg xmlns="http://www.w3.org/2000/svg" width="317.634" height="310.559" viewBox="0 0 317.634 310.559">
    <defs>
        <linearGradient id="linear-gradient" x1=".517" x2=".499" y1="1.037" y2=".296" gradientUnits="objectBoundingBox">
            <stop offset="0" stop-color="#ff8246"/>
            <stop offset="1" stop-color="#ffb794"/>
        </linearGradient>
        <linearGradient id="linear-gradient-2" x1=".464" x2=".798" y1=".304" y2="2.219" gradientUnits="objectBoundingBox">
            <stop offset="0" stop-color="#ee7033"/>
            <stop offset="1" stop-color="#ff8246"/>
        </linearGradient>
        <style>
            .cls-2{fill:#eebb60}.cls-3{fill:#feefc8}.cls-4{fill:#f7cc7f}.cls-5{opacity:.6}.cls-6{fill:#fff}.cls-7{fill:#cf5113}.cls-10{fill:#534b9e}.cls-11{fill:#09005d}.cls-13{fill:url(#linear-gradient-2)}
        </style>
    </defs>
    <g id="그룹_3894" transform="translate(-814.366 -531.441)">
        <g id="그룹_3892">
            <g id="그룹_2693" transform="translate(1254.994 351.26)">
                <g id="그룹_2692" transform="translate(-440.628 389.92)">
                    <g id="그룹_2687">
                        <path id="패스_7571" fill="#dfc784" d="M-431.165 477.283v-54.232l44.754 2.2 30.788 2.857v49.172z" transform="translate(439.33 -396.463)"/>
                        <g id="그룹_2686" transform="translate(0 9.474)">
                            <path id="패스_7376" d="M-431.463 422.538l-9.165-15.751 38.015 2.589 7.494 16.214z" class="cls-2" transform="translate(440.628 -405.425)"/>
                            <path id="패스_7377" d="M-431.165 477.283v-54.232l44.754 2.2 30.788 2.857v49.172z" class="cls-3" transform="translate(440.33 -405.937)"/>
                            <path id="패스_7378" d="M-387.538 477.352h34.312V428.18l-30.788-2.857-1.915-.094z" class="cls-4" transform="translate(438.954 -406.006)"/>
                            <path id="패스_7379" d="M-386.932 424.6l14.353-19.223 33.655 4.5-15.3 17.678z" class="cls-2" transform="translate(438.935 -405.38)"/>
                        </g>
                        <g id="그룹_2928" class="cls-5" transform="translate(103.879)">
                            <path id="타원_376" d="M2.351 5.708a6.14 6.14 0 0 1 10.068-1.95 6.217 6.217 0 0 1 1.3 6.723 6.14 6.14 0 0 1-10.067 1.942 6.217 6.217 0 0 1-1.3-6.715z" class="cls-6" transform="translate(10.679 48.23)"/>
                            <path id="패스_10" d="M18.712.079A18.69 18.69 0 0 0 5.471 5.645 18.861 18.861 0 0 0 0 18.955a16.914 16.914 0 0 0 .849 5.361 14.95 14.95 0 0 0 2.583 4.721A15.285 15.285 0 0 0 7.805 32.7a19.605 19.605 0 0 0 6.22 2.171V16.577a4.725 4.725 0 0 1 2.861-4.345 4.687 4.687 0 0 1 6.514 4.325V27.15a17.248 17.248 0 0 1-.365 3.8 8.149 8.149 0 0 1-1 2.545 6.114 6.114 0 0 1-1.49 1.635 9.445 9.445 0 0 1-1.833 1.07 7.162 7.162 0 0 0-2.312 1.641 7.511 7.511 0 0 0-1.436 2.3 12.149 12.149 0 0 0-.736 2.865 23.791 23.791 0 0 0-.207 3.33v.838l9.379.026v-.839s-.029-.45-.009-1.167a18.591 18.591 0 0 1 .281-2.769 12.407 12.407 0 0 1 1.036-3.273 6.752 6.752 0 0 1 2.254-2.679 30.568 30.568 0 0 0 4.58-3.694 21.692 21.692 0 0 0 3.3-4.144 18.166 18.166 0 0 0 2-4.62 19.227 19.227 0 0 0 .671-5.122A18.81 18.81 0 0 0 26.02 1.531 18.607 18.607 0 0 0 18.712.079z" class="cls-6"/>
                        </g>
                        <g id="그룹_2929" transform="translate(21.806 41.172)">
                            <path id="타원_376-2" d="M1.079 2.852A3.092 3.092 0 0 1 1.7 1.837a2.8 2.8 0 0 1 .9-.65 2.6 2.6 0 0 1 2.172.013 2.847 2.847 0 0 1 .934.692 3.167 3.167 0 0 1 .6.995 3.369 3.369 0 0 1 .217 1.163 3.332 3.332 0 0 1-.217 1.207 3.09 3.09 0 0 1-.628 1.017 2.8 2.8 0 0 1-.906.649 2.6 2.6 0 0 1-2.165-.018 2.849 2.849 0 0 1-.931-.693 3.168 3.168 0 0 1-.6-.993 3.369 3.369 0 0 1-.212-1.163 3.332 3.332 0 0 1 .215-1.204z" class="cls-4" transform="translate(4.892 24.169)"/>
                            <path id="패스_10-2" d="M8.581.078a7.988 7.988 0 0 0-3.35.77A8.693 8.693 0 0 0 2.5 2.884a9.591 9.591 0 0 0-1.833 3A10.185 10.185 0 0 0 0 9.539a9.145 9.145 0 0 0 .389 2.676 7.686 7.686 0 0 0 1.183 2.357 7.189 7.189 0 0 0 2 1.828 8.521 8.521 0 0 0 2.854 1.086V8.337A2.547 2.547 0 0 1 6.6 7.42a2.4 2.4 0 0 1 .461-.751 2.173 2.173 0 0 1 .684-.509 1.993 1.993 0 0 1 1.675-.009 2.146 2.146 0 0 1 .686.5 2.37 2.37 0 0 1 .463.748 2.535 2.535 0 0 1 .17.918v5.3a9.371 9.371 0 0 1-.168 1.9 4.3 4.3 0 0 1-.46 1.274 2.981 2.981 0 0 1-.686.818 4.271 4.271 0 0 1-.844.534 3.311 3.311 0 0 0-1.06.823 3.818 3.818 0 0 0-.659 1.152 6.512 6.512 0 0 0-.338 1.433 12.942 12.942 0 0 0-.1 1.665v.419l4.311.018v-.42s-.013-.225 0-.584a10.1 10.1 0 0 1 .129-1.386 6.607 6.607 0 0 1 .477-1.638 3.324 3.324 0 0 1 1.038-1.341 14.374 14.374 0 0 0 2.111-1.85 10.782 10.782 0 0 0 1.523-2.078 9.543 9.543 0 0 0 .922-2.317 10.431 10.431 0 0 0 .31-2.569 10.143 10.143 0 0 0-.684-3.684 9.485 9.485 0 0 0-1.862-3 8.584 8.584 0 0 0-2.755-2A7.943 7.943 0 0 0 8.581.078z" class="cls-4"/>
                        </g>
                    </g>
                    <g id="그룹_2689" transform="translate(217.623 9.474)">
                        <g id="그룹_2688">
                            <path id="패스_7381" d="M-227.473 422.538l-9.165-15.751 38.015 2.589 7.494 16.214z" class="cls-2" transform="translate(236.638 -405.425)"/>
                            <path id="패스_7382" d="M-227.175 477.283v-54.232l44.754 2.2 30.788 2.857v49.172z" class="cls-3" transform="translate(236.34 -405.937)"/>
                            <path id="패스_7383" d="M-183.548 477.352h34.312V428.18l-30.788-2.857-1.915-.094z" class="cls-4" transform="translate(234.965 -406.006)"/>
                            <path id="패스_7384" d="M-182.942 424.6l14.353-19.223 33.655 4.5-15.3 17.678z" class="cls-2" transform="translate(234.945 -405.38)"/>
                        </g>
                        <g id="그룹_2930" transform="translate(20.561 30.698)">
                            <path id="타원_376-3" d="M1.079 2.852A3.092 3.092 0 0 1 1.7 1.837a2.8 2.8 0 0 1 .9-.65 2.6 2.6 0 0 1 2.172.013 2.847 2.847 0 0 1 .934.692 3.167 3.167 0 0 1 .6.995 3.369 3.369 0 0 1 .217 1.163 3.332 3.332 0 0 1-.217 1.207 3.09 3.09 0 0 1-.628 1.017 2.8 2.8 0 0 1-.906.649 2.6 2.6 0 0 1-2.165-.018 2.849 2.849 0 0 1-.931-.693 3.168 3.168 0 0 1-.6-.993 3.369 3.369 0 0 1-.212-1.163 3.332 3.332 0 0 1 .215-1.204z" class="cls-4" transform="translate(4.892 24.169)"/>
                            <path id="패스_10-3" d="M8.581.078a7.988 7.988 0 0 0-3.35.77A8.693 8.693 0 0 0 2.5 2.884a9.591 9.591 0 0 0-1.833 3A10.185 10.185 0 0 0 0 9.539a9.145 9.145 0 0 0 .389 2.676 7.686 7.686 0 0 0 1.183 2.357 7.189 7.189 0 0 0 2 1.828 8.521 8.521 0 0 0 2.854 1.086V8.337A2.547 2.547 0 0 1 6.6 7.42a2.4 2.4 0 0 1 .461-.751 2.173 2.173 0 0 1 .684-.509 1.993 1.993 0 0 1 1.675-.009 2.146 2.146 0 0 1 .686.5 2.37 2.37 0 0 1 .463.748 2.535 2.535 0 0 1 .17.918v5.3a9.371 9.371 0 0 1-.168 1.9 4.3 4.3 0 0 1-.46 1.274 2.981 2.981 0 0 1-.686.818 4.271 4.271 0 0 1-.844.534 3.311 3.311 0 0 0-1.06.823 3.818 3.818 0 0 0-.659 1.152 6.512 6.512 0 0 0-.338 1.433 12.942 12.942 0 0 0-.1 1.665v.419l4.311.018v-.42s-.013-.225 0-.584a10.1 10.1 0 0 1 .129-1.386 6.607 6.607 0 0 1 .477-1.638 3.324 3.324 0 0 1 1.038-1.341 14.374 14.374 0 0 0 2.111-1.85 10.782 10.782 0 0 0 1.523-2.078 9.543 9.543 0 0 0 .922-2.317 10.431 10.431 0 0 0 .31-2.569 10.143 10.143 0 0 0-.684-3.684 9.485 9.485 0 0 0-1.862-3 8.584 8.584 0 0 0-2.755-2A7.943 7.943 0 0 0 8.581.078z" class="cls-4"/>
                        </g>
                    </g>
                </g>
            </g>
            <g id="그룹_2691" transform="translate(865.727 687.832)">
                <g id="그룹_2690">
                    <path id="패스_7386" d="M-359.29 376.162l-19.841-34.1 82.3 5.6 16.223 35.1z" class="cls-7" transform="translate(379.131 -339.113)"/>
                    <path id="패스_7387" fill="#ff8246" d="M-361.191 490.3V372.894l96.885 4.771 66.651 6.184V490.3z" transform="translate(381.032 -336.132)"/>
                    <path id="패스_7388" fill="#ec692a" d="M-278.489 489.862h74.28v-106.45l-66.651-6.184-4.146-.2z" transform="translate(389.397 -335.694)"/>
                    <path id="패스_7389" d="M-277.34 381.011l31.072-41.616 72.858 9.734-33.132 38.27z" class="cls-7" transform="translate(389.519 -339.396)"/>
                </g>
                <g id="그룹_2926" class="cls-5" transform="translate(50.49 61.862)">
                    <path id="타원_376-4" d="M2.686 6.518A7.017 7.017 0 0 1 14.192 4.3a7.1 7.1 0 0 1 1.491 7.683 7.017 7.017 0 0 1-11.51 2.207 7.1 7.1 0 0 1-1.487-7.672z" class="cls-6" transform="translate(12.198 55.094)"/>
                    <path id="패스_10-4" d="M21.376.091A21.355 21.355 0 0 0 6.249 6.447 21.535 21.535 0 0 0 0 21.647a19.319 19.319 0 0 0 .97 6.123 17.084 17.084 0 0 0 2.95 5.394 17.473 17.473 0 0 0 4.995 4.182 22.414 22.414 0 0 0 7.106 2.484V18.935a5.4 5.4 0 0 1 3.27-4.963 5.357 5.357 0 0 1 7.448 4.944v12.1a19.693 19.693 0 0 1-.418 4.338 9.3 9.3 0 0 1-1.143 2.907 6.979 6.979 0 0 1-1.7 1.867 10.786 10.786 0 0 1-2.1 1.219 8.177 8.177 0 0 0-2.637 1.878 8.571 8.571 0 0 0-1.641 2.633 13.867 13.867 0 0 0-.841 3.272 27.164 27.164 0 0 0-.237 3.8v.957l10.718.03v-.958s-.033-.514-.011-1.334a21.225 21.225 0 0 1 .322-3.164 14.161 14.161 0 0 1 1.184-3.738 7.708 7.708 0 0 1 2.577-3.059 34.91 34.91 0 0 0 5.236-4.218 24.769 24.769 0 0 0 3.775-4.733A20.74 20.74 0 0 0 42.1 27.44a21.955 21.955 0 0 0 .767-5.853A21.5 21.5 0 0 0 29.729 1.749 21.275 21.275 0 0 0 21.376.091z" class="cls-6"/>
                </g>
            </g>
        </g>
        <g id="그룹_3487" transform="rotate(14.98 -308.256 635.67)">
            <path id="패스_8171" d="M1156.3 1346.643c-.064 4.406-5.72 9.1-12.255 9.1s-11.475-3.444-11.832-7.836c-.851-10.477 5.3-10.368 11.832-10.368s12.409-1.786 12.255 9.104z" class="cls-10" transform="translate(-265.89 -999)"/>
            <ellipse id="타원_478" cx="16.566" cy="4.33" class="cls-10" rx="16.566" ry="4.33" transform="rotate(-4.61 4648.866 -10535.832)"/>
            <ellipse id="타원_479" cx="16.566" cy="4.33" class="cls-10" rx="16.566" ry="4.33" transform="rotate(-4.61 4596.806 -10537.927)"/>
            <ellipse id="타원_480" cx="16.566" cy="4.33" class="cls-10" rx="16.566" ry="4.33" transform="rotate(-4.61 4544.746 -10540.023)"/>
            <ellipse id="타원_481" cx="16.566" cy="4.33" class="cls-10" rx="16.566" ry="4.33" transform="rotate(-4.61 4492.698 -10542.118)"/>
            <g id="그룹_3439" transform="translate(864.615 331.199)">
                <path id="패스_8172" d="M1144.081 1401.4a39.417 39.417 0 0 1-7.234-.591.219.219 0 0 1 .082-.43 47.186 47.186 0 0 0 12.05.38 51.783 51.783 0 0 0 10.106-1.743.219.219 0 0 1 .123.421 52.264 52.264 0 0 1-10.193 1.759c-1.696.134-3.354.204-4.934.204z" class="cls-11" transform="translate(-1134.569 -1385.315)"/>
                <path id="패스_8173" d="M1130.611 1351.626a34.419 34.419 0 0 1-8.882-.963.219.219 0 0 1 .12-.421c3.161.9 8.25 1.179 13.615.747 5.306-.428 10.255-1.5 13.238-2.88a.219.219 0 0 1 .183.4c-3.027 1.4-8.031 2.487-13.386 2.919-1.671.132-3.317.198-4.888.198z" class="cls-11" transform="translate(-1121.053 -1339.738)"/>
                <path id="패스_8174" d="M1126.154 1311.666a31.988 31.988 0 0 1-9.362-1.127.219.219 0 0 1 .137-.416c3.114 1.027 8.394 1.364 14.123.9 5.306-.428 10.255-1.5 13.238-2.881a.219.219 0 0 1 .184.4c-3.028 1.4-8.032 2.488-13.386 2.919-1.698.139-3.357.205-4.934.205z" class="cls-11" transform="translate(-1116.641 -1303.965)"/>
                <path id="패스_8175" d="M1138.853 1271.967a37.759 37.759 0 0 1-7.886-.717.219.219 0 1 1 .095-.427 45.67 45.67 0 0 0 12.66.506c5.259-.424 10.182-1.489 13.17-2.849a.219.219 0 0 1 .182.4c-3.032 1.38-8.01 2.459-13.317 2.887-1.678.133-3.328.2-4.904.2z" class="cls-11" transform="translate(-1129.31 -1268.459)"/>
            </g>
            <path id="패스_8176" fill="url(#linear-gradient)" d="M856.062 311.675a30.842 30.842 0 0 0-5.523-10.783 71.377 71.377 0 0 1-15.376-39.749c-1.586-27.624 22.914-41.455 45.271-39.577s44.416 18.523 42 44.223c-1.486 15.813-10.336 27.807-16.926 34.7a36.6 36.6 0 0 0-8.785 15.565c-1.978 7.14-6.684 16.038-17.87 16.581-14.474.696-20.486-12.796-22.791-20.96z"/>
            <path id="패스_8177" d="M1287.525 781.578l7.823-50.878c.162-1.051.679-1.757 1.155-1.577s.732 1.179.57 2.23c0 .028-.01.063-.015.09l-8.911 50.405c-.067.379-.259.618-.43.535s-.248-.438-.192-.805z" class="cls-13" transform="translate(-404.975 -454.458)"/>
            <path id="패스_8178" d="M1128.327 785.431l-7.822-50.878c-.162-1.051-.679-1.757-1.155-1.577s-.732 1.179-.57 2.23c0 .028.01.063.015.09l8.905 50.404c.067.379.26.619.43.535s.253-.435.197-.804z" class="cls-13" transform="translate(-253.896 -457.906)"/>
            <path id="패스_8179" d="M1165.807 650.21a.82.82 0 0 0-1.027-.267l-4.356 2.035-1.512-4.308a.925.925 0 0 0-.53-.533 1.077 1.077 0 0 0-1.339.413l-.007.014-3.582 6.531-3.324-9.3-.005-.015a1.064 1.064 0 0 0-.5-.567 1.3 1.3 0 0 0-1.645.324l-5.008 6.894a.6.6 0 0 0 .176.87.84.84 0 0 0 1.065-.116l4.409-4.919 3.97 8.845v.007a.7.7 0 0 0 .35.343.83.83 0 0 0 1.039-.269l3.831-6.148 1.442 3.109.013.028a.621.621 0 0 0 .036.066.819.819 0 0 0 1.026.266l5.17-2.416a.615.615 0 0 0 .308-.887z" class="cls-13" transform="translate(-275.49 -378.336)"/>
            <path id="패스_8180" d="M1505.422 853.206a.329.329 0 0 1-.264-.525 58.328 58.328 0 0 0 3.671-5.576.328.328 0 0 1 .569.328 59.024 59.024 0 0 1-3.712 5.639.329.329 0 0 1-.264.134z" class="cls-6" transform="translate(-599.743 -559.946)"/>
            <path id="패스_8181" d="M1566.789 488.606a.329.329 0 0 1-.3-.46 48.467 48.467 0 0 0 3.708-25.168 39.467 39.467 0 0 0-2.65-10.548.329.329 0 0 1 .6-.274 40.082 40.082 0 0 1 2.7 10.715 49.121 49.121 0 0 1-3.754 25.536.329.329 0 0 1-.304.199z" class="cls-6" transform="translate(-654.675 -206.39)"/>
        </g>
    </g>
</svg>
