<svg xmlns="http://www.w3.org/2000/svg" xmlns:xlink="http://www.w3.org/1999/xlink" width="321.494" height="343.386" viewBox="0 0 321.494 343.386">
    <defs>
        <linearGradient id="linear-gradient" x1="-59.061" x2="-60.061" y1=".5" y2=".5" gradientUnits="objectBoundingBox">
            <stop offset="0" stop-color="#09005d"/>
            <stop offset="1" stop-color="#1a0f91"/>
        </linearGradient>
        <linearGradient id="linear-gradient-2" x1="1" x2="0" y1=".5" y2=".5" gradientUnits="objectBoundingBox">
            <stop offset="0" stop-color="#febbba"/>
            <stop offset="1" stop-color="#ff928e"/>
        </linearGradient>
        <linearGradient id="linear-gradient-3" x1="-40.352" x2="-41.352" y1=".5" y2=".5" xlink:href="#linear-gradient"/>
        <linearGradient id="linear-gradient-5" x1="-.871" x2=".865" y1="-.957" y2="1.041" xlink:href="#linear-gradient"/>
        <linearGradient id="linear-gradient-6" x1=".392" x2=".491" y1="-4.003" y2=".107" gradientUnits="objectBoundingBox">
            <stop offset="0" stop-color="#4f52ff"/>
            <stop offset="1" stop-color="#4042e2"/>
        </linearGradient>
        <linearGradient id="linear-gradient-7" x1="-.731" x2="-.058" y1="-6.56" y2="-2.791" gradientUnits="objectBoundingBox">
            <stop offset="0" stop-color="#ff928e"/>
            <stop offset="1" stop-color="#fe7062"/>
        </linearGradient>
        <linearGradient id="linear-gradient-9" x1="-.37" x2=".025" y1="-1.896" y2="-.722" xlink:href="#linear-gradient-7"/>
        <linearGradient id="linear-gradient-12" x1="-30.508" x2="-31.552" y1="30.734" y2="30.734" xlink:href="#linear-gradient"/>
        <style>
            .cls-2{fill:url(#linear-gradient-2)}.cls-9{fill:#ffd949}.cls-10{fill:#f4bf1a}.cls-11{fill:#dca815}.cls-12{fill:#5b2b94}.cls-13{fill:#36135e}.cls-14{fill:#0e031c}.cls-15{fill:#a290fe}.cls-16{fill:#dabdfb}.cls-17{fill:#0d001c}.cls-18{fill:#e66526}
        </style>
    </defs>
    <g id="그룹_3893" transform="translate(-380.508 -498.613)">
        <g id="그룹_2849" transform="translate(393.113 545.236)">
            <g id="그룹_3891">
                <g id="그룹_2845" transform="translate(0 42.178)">
                    <path id="패스_7478" fill="url(#linear-gradient)" d="M2473.882 3107.761s-1.709 2.693-2.139 10.235a1.228 1.228 0 0 0 1.221 1.3h13.365a.788.788 0 0 0 .75-1.036c-.783-2.317-3.151-7.97-8.436-11.2z" transform="translate(-2469.426 -2895.05)"/>
                    <path id="패스_7479" d="M2530.786 3067.935l.756 6.339a1.192 1.192 0 0 0 1.041 1.047 10.523 10.523 0 0 0 2.826-.027 1.958 1.958 0 0 0 1.615-1.942v-6.12z" class="cls-2" transform="translate(-2526.91 -2860.334)"/>
                    <path id="패스_7480" fill="url(#linear-gradient-3)" d="M2151.391 3107.062a18.668 18.668 0 0 0-2.5 9.435 2.361 2.361 0 0 0 2.375 2.309h20.758a.994.994 0 0 0 .572-1.808c-3.928-2.758-11.649-7.911-17.232-9.936z" transform="translate(-2113.866 -2895.05)"/>
                    <path id="패스_7481" d="M2285.646 3033.111l1.613 7.829a1.615 1.615 0 0 0 1.91 1.27 5.822 5.822 0 0 0 1.825-.763 1.853 1.853 0 0 0 .828-1.891l-1.668-9.484z" class="cls-2" transform="translate(-2250.259 -2827.944)"/>
                    <path id="패스_7482" fill="url(#linear-gradient-5)" d="M2287.058 2206.1s-5.606 4.942-6.662 10.889 2.99 102.6 2.99 102.6 5.606.932 8.5-.818c0 0 3.428-62.729 6.034-77.224 0 0 13.664 64.979 17.449 76.719 0 0 5.4.657 7.143-.371 0 0-3.579-84.23-8.077-99.206z" transform="translate(-2280.221 -2109.778)"/>
                    <path id="패스_7483" fill="url(#linear-gradient-6)" d="M2476.714 2373.887a.552.552 0 0 0 .142-.018.562.562 0 0 0 .4-.687l-2.381-9.135a.565.565 0 0 0-.241-.331l-5.145-3.3a.562.562 0 1 0-.607.947l4.96 3.183 2.326 8.922a.563.563 0 0 0 .546.419z" transform="translate(-2459.181 -2244.198)"/>
                    <path id="패스_7484" fill="url(#linear-gradient-7)" d="M1988.695 1755.086c-23.6-1.959-29.77 2.925-29.77 2.925l11.342 17.906s23.191-.458 39.807-13.266a40.56 40.56 0 0 1-6.655-9.932 31.249 31.249 0 0 1-14.724 2.367z" transform="translate(-1926.531 -1714.612)"/>
                    <path id="패스_7485" d="M1853.457 1496.653a.723.723 0 0 0-1.378-.277l-3.012 6.426a6.7 6.7 0 0 0-.534 3.983l1.056 3.741a6.456 6.456 0 0 1-1.317 5.138c-2.767 3.459-8.66 9.778-17.05 13.264a40.559 40.559 0 0 0 6.655 9.933 40.709 40.709 0 0 0 14.167-19.672 3.159 3.159 0 0 0 2.229-3.139z" class="cls-2" transform="translate(-1754.333 -1490.822)"/>
                    <path id="패스_7486" fill="url(#linear-gradient-9)" d="M1958.748 1751.573c-8.308-8.953-24.135-13-33.3-14.659a8.4 8.4 0 0 0-9.394 5.33c-4.123 11.084-15.337 39.921-17.511 44.878-1.783 4.066-3.646 8.037-4.829 10.52a2.981 2.981 0 0 0 1.391 3.971c7.709 3.716 21.581 7.92 27.2 9.56a1.929 1.929 0 0 0 2.469-1.856 6.034 6.034 0 0 1 .859-3.1l21.3-35.492c13.275 14.719 24.9 16.065 33.831 12.843a67.195 67.195 0 0 1-2.956-13.948c-13.187-2.263-19.06-18.047-19.06-18.047z" transform="translate(-1888.815 -1700.717)"/>
                    <path id="패스_7489" d="M2146.491 1609.793l-7.078 17.271s8.132 5.628 14.675 5.093l3.532-15.529z" class="cls-2" transform="translate(-2097.252 -1590.039)"/>
                    <g id="그룹_2844" transform="translate(43.598)">
                        <path id="패스_7490" d="M2105.493 1511.215c.162.229 5.12 18.141 5.12 18.141l-10.287 2.613-7.221-16.278s9.674-8.321 12.388-4.476z" class="cls-2" transform="translate(-2087.897 -1503.234)"/>
                        <path id="패스_7491" fill="url(#linear-gradient-12)" d="M2089.145 1470.883l3.131 8.867a1.313 1.313 0 0 0 .163.318c.425.6 2.039 2.573 3.953.8 1.737-1.61 3.346-3.053 4.832-3.315a1.313 1.313 0 0 1 1.495.943 56.7 56.7 0 0 1 1.73 8.642 1.31 1.31 0 0 1-1.066 1.412 42.322 42.322 0 0 1-9.826.817 1.315 1.315 0 0 1-1.107-.763c-.98-2.142-3.983-8.64-5.1-10.321-1.049-1.578-3.618-1.534-4.7-1.438a1.29 1.29 0 0 1-.968-.316c-.943-.826-2.738-2.937-.213-5.462a1.316 1.316 0 0 0-.031-1.894c-1.083-1.019-2.243-2.827-.437-5.069a4.81 4.81 0 0 1 5.743-1.374 1.314 1.314 0 0 0 1.581-.584 1.04 1.04 0 0 1 1.073-.5 1.293 1.293 0 0 0 1.379-1.327 3.923 3.923 0 0 1 3.03-4.092c4.494-1.4 7.3 2.943 7.574 6.182s-4.681 4.479-7.6 4.261c-2.217-.166-3.863 2.031-4.525 3.094a1.3 1.3 0 0 0-.111 1.119z" transform="translate(-2080.064 -1455.953)"/>
                        <path id="패스_7492" d="M2210.475 1614.671s-.726-5.624-3.065-5.9-4.616 1.647-2.291 4.8c2.893 3.929 5.356 1.1 5.356 1.1z" class="cls-2" transform="translate(-2202.018 -1589.126)"/>
                    </g>
                </g>
                <path id="패스_7487" d="M1743.209 1935.9l-4.313-2.521c-7.708 5.294-15.934 8.5-21.208 7.595a67.21 67.21 0 0 0 2.956 13.948c11.765-4.24 22.565-19.022 22.565-19.022z" class="cls-2" transform="translate(-1628.689 -1829.898)"/>
                <path id="패스_7488" d="M1582.546 1897.177c-2.682-1.46-10.641-2.715-10.641-2.715s-9.148-5.353-11.782-6.406c-2.187-.875-3.129 2.4-3.385 3.531-.052.231-.076.373-.076.373l.338 2.176 9.242 4.107a11.771 11.771 0 0 0 6.308.915l9.868-1.291a.369.369 0 0 0 .128-.689z" class="cls-2" transform="translate(-1447.542 -1790.264)"/>
            </g>
            <g id="XMLID_100_" transform="rotate(-27 104.515 -122.749)">
                <path id="XMLID_99_" d="M51.2 102.179c-24.689 0-44.7-22.874-44.7-51.09S26.514 0 51.2 0s44.7 22.874 44.7 51.09-20.014 51.09-44.7 51.09" class="cls-9" transform="translate(4.948)"/>
                <path id="XMLID_132_" d="M11.448 51.09c0-26.1 17.124-47.608 39.23-50.7A39.647 39.647 0 0 0 45.2 0C20.514 0 .5 22.874.5 51.09s20.014 51.09 44.7 51.09a39.646 39.646 0 0 0 5.474-.394c-22.105-3.087-39.23-24.6-39.23-50.7" class="cls-10"/>
                <path id="XMLID_115_" d="M47.511 87.672h-.157a32.517 32.517 0 0 1-3.823-.226 1.825 1.825 0 1 1 .432-3.624 28.728 28.728 0 0 0 3.39.2 1.893 1.893 0 0 1 1.9 1.825 1.758 1.758 0 0 1-1.746 1.825m10.61-1.965a1.825 1.825 0 0 1-.644-3.532 30 30 0 0 0 3.113-1.381 1.824 1.824 0 1 1 1.666 3.246 33.912 33.912 0 0 1-3.492 1.549 1.794 1.794 0 0 1-.642.119m-24.7-1.394a1.812 1.812 0 0 1-.825-.2A34.787 34.787 0 0 1 29.3 82.2a1.825 1.825 0 1 1 2-3.053 30.893 30.893 0 0 0 2.952 1.712 1.825 1.825 0 0 1-.827 3.452m36.693-6.492a1.825 1.825 0 0 1-1.3-3.109 34.329 34.329 0 0 0 2.294-2.558 1.825 1.825 0 0 1 2.832 2.3c-.8.989-1.657 1.94-2.534 2.825a1.826 1.826 0 0 1-1.3.54m-47.83-2.565a1.828 1.828 0 0 1-1.412-.666c-.792-.967-1.553-1.989-2.259-3.038a1.825 1.825 0 1 1 3.025-2.042c.644.956 1.336 1.887 2.056 2.764a1.823 1.823 0 0 1-1.41 2.981m55.859-9.373a1.825 1.825 0 0 1-1.673-2.554c.458-1.047.876-2.135 1.243-3.228a1.825 1.825 0 0 1 3.459 1.164c-.4 1.191-.858 2.377-1.356 3.522a1.831 1.831 0 0 1-1.673 1.1m-62.815-3.228a1.83 1.83 0 0 1-1.724-1.237c-.4-1.182-.761-2.4-1.064-3.618a1.824 1.824 0 0 1 3.54-.881c.279 1.118.608 2.237.978 3.321a1.825 1.825 0 0 1-1.137 2.315 1.794 1.794 0 0 1-.589.1m66.261-10.76q-.071 0-.142-.005a1.827 1.827 0 0 1-1.679-1.961c.086-1.106.13-2.235.13-3.354a1.876 1.876 0 0 1 1.825-1.883 1.775 1.775 0 0 1 1.825 1.764v.119c0 1.213-.047 2.436-.14 3.636a1.825 1.825 0 0 1-1.817 1.684m-68.6-3.476a1.808 1.808 0 0 1-1.825-1.8v-.04c0-1.244.049-2.5.146-3.717a1.825 1.825 0 1 1 3.638.288c-.089 1.128-.135 2.281-.135 3.428a1.843 1.843 0 0 1-1.825 1.845m67.394-10.88a1.823 1.823 0 0 1-1.766-1.378c-.283-1.122-.613-2.239-.985-3.323a1.825 1.825 0 0 1 3.452-1.182c.405 1.179.765 2.394 1.071 3.611a1.825 1.825 0 0 1-1.323 2.215 1.7 1.7 0 0 1-.449.057M15.3 34.223a1.83 1.83 0 0 1-1.73-2.412c.4-1.186.861-2.37 1.363-3.518a1.825 1.825 0 1 1 3.345 1.462c-.462 1.053-.881 2.14-1.25 3.228a1.829 1.829 0 0 1-1.728 1.24m59.246-9.84a1.823 1.823 0 0 1-1.513-.8c-.646-.952-1.339-1.881-2.062-2.759a1.825 1.825 0 0 1 2.818-2.324c.794.965 1.556 1.985 2.266 3.034a1.825 1.825 0 0 1-1.509 2.848m-52.319-2.774a1.825 1.825 0 0 1-1.41-2.98c.8-.985 1.659-1.934 2.538-2.819a1.825 1.825 0 0 1 2.589 2.573c-.8.8-1.571 1.66-2.3 2.556a1.813 1.813 0 0 1-1.414.67m42.116-7.353a1.805 1.805 0 0 1-.993-.3 31.038 31.038 0 0 0-2.96-1.7A1.825 1.825 0 0 1 62.037 9a34.247 34.247 0 0 1 3.3 1.9 1.825 1.825 0 0 1-1 3.354m-30.978-1.733a1.825 1.825 0 0 1-.83-3.45 33.724 33.724 0 0 1 3.5-1.54 1.824 1.824 0 1 1 1.271 3.417 29.859 29.859 0 0 0-3.118 1.374 1.806 1.806 0 0 1-.825.2M50.886 9.33a1.676 1.676 0 0 1-.213-.013 28.845 28.845 0 0 0-3.319-.192A1.858 1.858 0 0 1 45.491 7.3a1.793 1.793 0 0 1 1.786-1.825h.077a32.45 32.45 0 0 1 3.74.217 1.824 1.824 0 0 1-.208 3.636" class="cls-10" transform="translate(8.795 4.516)"/>
                <path id="XMLID_114_" d="M11.444 29H.5c.036 1.228.106 2.445.217 3.649H11.67q-.17-1.806-.226-3.649" class="cls-11" transform="translate(0 23.914)"/>
                <path id="XMLID_113_" d="M11.823 24H.883c-.152 1.2-.261 2.421-.336 3.649h10.946c.077-1.228.179-2.447.33-3.649" class="cls-11" transform="translate(.039 19.791)"/>
                <path id="XMLID_112_" d="M12 34H1.047q.356 1.85.823 3.649h10.946Q12.351 35.851 12 34" class="cls-11" transform="translate(.451 28.037)"/>
                <path id="XMLID_111_" d="M13.4 39H2.443c.465 1.244.98 2.458 1.527 3.649h10.95Q14.1 40.865 13.4 39" class="cls-11" transform="translate(1.602 32.16)"/>
                <path id="XMLID_110_" d="M13.15 19H2.215c-.356 1.2-.688 2.412-.965 3.649h10.961c.277-1.233.586-2.454.94-3.649" class="cls-11" transform="translate(.618 15.668)"/>
                <path id="XMLID_109_" d="M15.475 14H4.527c-.6 1.188-1.17 2.4-1.688 3.649h10.955q.777-1.867 1.68-3.649" class="cls-11" transform="translate(1.929 11.545)"/>
                <path id="XMLID_108_" d="M20.136 8H9.176q-1.557 1.741-2.96 3.649h10.957Q18.577 9.742 20.136 8" class="cls-11" transform="translate(4.714 6.597)"/>
                <path id="XMLID_107_" d="M27.34 3H16.368a43.879 43.879 0 0 0-5.357 3.649h10.964A43.959 43.959 0 0 1 27.34 3" class="cls-11" transform="translate(8.668 2.474)"/>
                <path id="XMLID_106_" d="M16.469 45H5.516q1.27 1.9 2.686 3.649h10.96Q17.745 46.9 16.469 45" class="cls-11" transform="translate(4.136 37.108)"/>
                <path id="XMLID_105_" d="M9.832 50a45.256 45.256 0 0 0 4.605 3.649h10.974A44.894 44.894 0 0 1 20.776 50z" class="cls-11" transform="translate(7.695 41.231)"/>
            </g>
        </g>
        <g id="XMLID_100_2" transform="rotate(29 -758.58 1041.664)">
            <path id="XMLID_99_2" d="M33.417 61.525C18.551 61.525 6.5 47.752 6.5 30.762S18.551 0 33.417 0s26.917 13.773 26.917 30.762-12.051 30.763-26.917 30.763" class="cls-9" transform="translate(.592)"/>
            <path id="XMLID_132_2" d="M7.092 30.762C7.092 15.049 17.4 2.1 30.713.237A23.872 23.872 0 0 0 27.417 0C12.551 0 .5 13.773.5 30.762s12.051 30.763 26.917 30.763a23.872 23.872 0 0 0 3.3-.237C17.4 59.429 7.092 46.475 7.092 30.762" class="cls-10"/>
            <path id="XMLID_115_2" d="M33.05 54.968h-.094a19.58 19.58 0 0 1-2.3-.136 1.1 1.1 0 1 1 .26-2.182 17.3 17.3 0 0 0 2.041.121 1.14 1.14 0 0 1 1.146 1.1 1.058 1.058 0 0 1-1.051 1.1m6.389-1.183a1.1 1.1 0 0 1-.388-2.127 18.068 18.068 0 0 0 1.874-.832 1.1 1.1 0 1 1 1 1.955 20.418 20.418 0 0 1-2.1.933 1.08 1.08 0 0 1-.387.071m-14.87-.839a1.091 1.091 0 0 1-.5-.12 20.946 20.946 0 0 1-1.987-1.151 1.1 1.1 0 1 1 1.2-1.838 18.6 18.6 0 0 0 1.778 1.031 1.1 1.1 0 0 1-.5 2.079m22.094-3.909a1.1 1.1 0 0 1-.78-1.872 20.671 20.671 0 0 0 1.381-1.54 1.1 1.1 0 1 1 1.705 1.387c-.485.6-1 1.168-1.526 1.7a1.1 1.1 0 0 1-.78.325m-28.8-1.547a1.1 1.1 0 0 1-.85-.4c-.477-.582-.935-1.2-1.36-1.829a1.1 1.1 0 1 1 1.822-1.229c.388.576.8 1.136 1.238 1.664a1.1 1.1 0 0 1-.849 1.8m33.634-5.644a1.1 1.1 0 0 1-1.007-1.538c.276-.631.527-1.285.748-1.944a1.1 1.1 0 0 1 2.083.7c-.242.717-.516 1.432-.816 2.12a1.1 1.1 0 0 1-1.007.66M13.67 39.9a1.1 1.1 0 0 1-1.04-.745c-.243-.712-.458-1.445-.641-2.179a1.1 1.1 0 0 1 2.131-.531c.168.673.366 1.347.589 2a1.1 1.1 0 0 1-.684 1.394 1.08 1.08 0 0 1-.355.06m39.9-6.479h-.086a1.1 1.1 0 0 1-1.011-1.181c.052-.666.078-1.346.078-2.019a1.13 1.13 0 0 1 1.1-1.134 1.069 1.069 0 0 1 1.1 1.062v.071c0 .731-.029 1.467-.085 2.19a1.1 1.1 0 0 1-1.094 1.014m-41.3-2.093a1.089 1.089 0 0 1-1.1-1.087v-.024c0-.749.03-1.5.088-2.238a1.1 1.1 0 1 1 2.191.174c-.054.679-.081 1.373-.081 2.064a1.109 1.109 0 0 1-1.1 1.111m40.58-6.551a1.1 1.1 0 0 1-1.063-.829c-.17-.676-.369-1.348-.593-2a1.1 1.1 0 0 1 2.079-.712c.244.71.46 1.441.645 2.174a1.1 1.1 0 0 1-.8 1.334 1.024 1.024 0 0 1-.27.034m-39.189-2a1.1 1.1 0 0 1-1.042-1.452c.243-.714.519-1.427.821-2.118a1.1 1.1 0 1 1 2.014.88c-.278.634-.531 1.289-.753 1.944a1.1 1.1 0 0 1-1.04.747m35.67-5.921a1.1 1.1 0 0 1-.911-.483c-.389-.573-.806-1.133-1.241-1.661a1.1 1.1 0 1 1 1.7-1.4c.478.581.937 1.2 1.365 1.827a1.1 1.1 0 0 1-.909 1.715m-31.5-1.671a1.1 1.1 0 0 1-.849-1.794c.485-.593 1-1.165 1.528-1.7a1.1 1.1 0 0 1 1.559 1.549c-.479.482-.946 1-1.387 1.539a1.091 1.091 0 0 1-.851.4m25.359-4.428a1.087 1.087 0 0 1-.6-.178 18.689 18.689 0 0 0-1.782-1.026A1.1 1.1 0 0 1 41.8 7.6a20.621 20.621 0 0 1 1.99 1.146 1.1 1.1 0 0 1-.6 2.019M24.529 9.718a1.1 1.1 0 0 1-.5-2.078 20.306 20.306 0 0 1 2.105-.927 1.1 1.1 0 1 1 .766 2.058 17.979 17.979 0 0 0-1.878.827 1.088 1.088 0 0 1-.5.12M35.083 7.8a1.009 1.009 0 0 1-.129-.008 17.369 17.369 0 0 0-2-.115 1.119 1.119 0 0 1-1.122-1.1 1.08 1.08 0 0 1 1.076-1.1h.046a19.539 19.539 0 0 1 2.252.131 1.1 1.1 0 0 1-.125 2.19" class="cls-10" transform="translate(1.052 .54)"/>
            <path id="XMLID_114_2" d="M7.09 29H.5c.022.739.064 1.472.131 2.2h6.6q-.1-1.088-.136-2.2" class="cls-11" transform="translate(0 2.861)"/>
            <path id="XMLID_113_2" d="M7.337 24H.749c-.091.724-.157 1.458-.2 2.2h6.589c.046-.739.108-1.473.2-2.2" class="cls-11" transform="translate(.005 2.368)"/>
            <path id="XMLID_112_2" d="M7.64 34H1.047q.214 1.114.5 2.2h6.586q-.28-1.083-.493-2.2" class="cls-11" transform="translate(.054 3.354)"/>
            <path id="XMLID_111_2" d="M9.039 39h-6.6c.28.749.59 1.48.92 2.2h6.597q-.494-1.074-.916-2.2" class="cls-11" transform="translate(.192 3.848)"/>
            <path id="XMLID_110_2" d="M8.415 19H1.831c-.214.722-.414 1.452-.581 2.2h6.6c.167-.743.353-1.478.566-2.2" class="cls-11" transform="translate(.074 1.875)"/>
            <path id="XMLID_109_2" d="M10.447 14H3.855c-.363.715-.7 1.447-1.016 2.2h6.6q.461-1.127 1.008-2.2" class="cls-11" transform="translate(.231 1.381)"/>
            <path id="XMLID_108_2" d="M14.6 8H8q-.94 1.048-1.784 2.2h6.6Q13.659 9.049 14.6 8" class="cls-11" transform="translate(.564 .789)"/>
            <path id="XMLID_107_2" d="M20.843 3h-6.606a26.421 26.421 0 0 0-3.226 2.2h6.6A26.469 26.469 0 0 1 20.843 3" class="cls-11" transform="translate(1.037 .296)"/>
            <path id="XMLID_106_2" d="M12.111 45h-6.6q.765 1.142 1.617 2.2h6.6q-.854-1.055-1.622-2.2" class="cls-11" transform="translate(.495 4.44)"/>
            <path id="XMLID_105_2" d="M9.832 50a27.25 27.25 0 0 0 2.773 2.2h6.607a27.031 27.031 0 0 1-2.79-2.2z" class="cls-11" transform="translate(.921 4.933)"/>
        </g>
        <g id="XMLID_100_3" transform="rotate(-102 523.761 42.79)">
            <path id="XMLID_99_3" d="M26.8 46.389C15.586 46.389 6.5 36 6.5 23.195S15.586 0 26.8 0s20.3 10.385 20.3 23.195S38 46.389 26.8 46.389" class="cls-9" transform="translate(-1.03)"/>
            <path id="XMLID_132_3" d="M5.47 23.195c0-11.848 7.775-21.614 17.81-23.016A18 18 0 0 0 20.8 0C9.586 0 .5 10.385.5 23.195s9.086 23.194 20.3 23.194a18 18 0 0 0 2.485-.179C13.245 44.809 5.47 35.042 5.47 23.195" class="cls-10"/>
            <path id="XMLID_115_3" d="M27.666 42.793H27.6a14.762 14.762 0 0 1-1.735-.1.828.828 0 1 1 .2-1.645 13.041 13.041 0 0 0 1.539.091.859.859 0 0 1 .864.828.8.8 0 0 1-.793.828m4.817-.892a.829.829 0 0 1-.292-1.6 13.622 13.622 0 0 0 1.4-.633.828.828 0 1 1 .756 1.474 15.4 15.4 0 0 1-1.586.7.814.814 0 0 1-.292.054m-11.212-.633a.822.822 0 0 1-.374-.09 15.8 15.8 0 0 1-1.5-.868.828.828 0 1 1 .908-1.386 14.023 14.023 0 0 0 1.34.777.829.829 0 0 1-.375 1.567M37.93 38.32a.828.828 0 0 1-.588-1.412 15.586 15.586 0 0 0 1.041-1.161.829.829 0 1 1 1.286 1.045c-.365.449-.752.881-1.151 1.282a.829.829 0 0 1-.588.245m-21.718-1.165a.83.83 0 0 1-.641-.3c-.36-.439-.7-.9-1.026-1.379a.828.828 0 1 1 1.373-.927c.292.434.606.857.934 1.255a.828.828 0 0 1-.64 1.354m25.36-4.257a.829.829 0 0 1-.76-1.16c.208-.475.4-.969.564-1.465a.829.829 0 0 1 1.571.529c-.182.541-.389 1.079-.615 1.6a.831.831 0 0 1-.76.5m-28.518-1.469a.831.831 0 0 1-.784-.562c-.183-.537-.345-1.089-.483-1.643a.828.828 0 0 1 1.607-.4c.127.508.276 1.016.444 1.508a.828.828 0 0 1-.516 1.051.815.815 0 0 1-.268.046m30.082-4.885h-.065a.829.829 0 0 1-.762-.891c.039-.5.059-1.015.059-1.523a.852.852 0 0 1 .828-.855.806.806 0 0 1 .828.8v.054c0 .551-.022 1.106-.064 1.651a.829.829 0 0 1-.825.765m-31.141-1.579a.821.821 0 0 1-.828-.819v-.018c0-.565.022-1.133.066-1.687a.828.828 0 1 1 1.652.131c-.041.512-.061 1.035-.061 1.557a.837.837 0 0 1-.828.837m30.6-4.94a.828.828 0 0 1-.8-.625c-.128-.509-.278-1.016-.447-1.508a.828.828 0 0 1 1.567-.537c.184.535.347 1.087.486 1.639a.828.828 0 0 1-.6 1.006.772.772 0 0 1-.2.026m-29.558-1.507a.831.831 0 0 1-.785-1.1c.183-.538.391-1.076.619-1.6a.829.829 0 0 1 1.523.673c-.21.478-.4.972-.567 1.465a.83.83 0 0 1-.784.563m26.9-4.467a.827.827 0 0 1-.687-.364c-.293-.432-.608-.854-.936-1.253a.829.829 0 1 1 1.274-1.055c.36.438.707.9 1.029 1.378a.828.828 0 0 1-.685 1.293M16.188 12.8a.828.828 0 0 1-.64-1.353c.365-.447.753-.878 1.152-1.28a.829.829 0 0 1 1.175 1.168c-.361.364-.713.754-1.045 1.161a.823.823 0 0 1-.642.3m19.12-3.335a.82.82 0 0 1-.451-.134 14.091 14.091 0 0 0-1.344-.774.828.828 0 0 1 .747-1.479 15.548 15.548 0 0 1 1.5.864.828.828 0 0 1-.453 1.523m-14.065-.787a.828.828 0 0 1-.377-1.566 15.311 15.311 0 0 1 1.587-.7.828.828 0 1 1 .58 1.552 13.556 13.556 0 0 0-1.416.624.82.82 0 0 1-.374.09M29.2 7.226a.761.761 0 0 1-.1-.006 13.1 13.1 0 0 0-1.5-.087.844.844 0 0 1-.846-.828.814.814 0 0 1 .811-.828h.035a14.732 14.732 0 0 1 1.7.1.828.828 0 0 1-.1 1.649" class="cls-10" transform="translate(-1.831 -.94)"/>
            <path id="XMLID_114_3" d="M5.469 29H.5c.017.558.048 1.11.1 1.657h4.971q-.077-.82-.1-1.657" class="cls-11" transform="translate(0 -4.977)"/>
            <path id="XMLID_113_3" d="M5.666 24H.7c-.069.546-.118 1.1-.152 1.657h4.968c.035-.557.081-1.111.15-1.657" class="cls-11" transform="translate(-.008 -4.119)"/>
            <path id="XMLID_112_3" d="M6.018 34H1.047q.162.84.374 1.657H6.39Q6.179 34.84 6.018 34" class="cls-11" transform="translate(-.094 -5.835)"/>
            <path id="XMLID_111_3" d="M7.417 39H2.443c.211.565.445 1.116.693 1.657h4.971q-.373-.81-.691-1.657" class="cls-11" transform="translate(-.333 -6.693)"/>
            <path id="XMLID_110_3" d="M6.653 19H1.688c-.162.544-.312 1.1-.438 1.657h4.976c.126-.56.266-1.114.427-1.657" class="cls-11" transform="translate(-.129 -3.261)"/>
            <path id="XMLID_109_3" d="M8.576 14H3.605c-.273.539-.531 1.091-.766 1.657h4.974q.353-.847.763-1.657" class="cls-11" transform="translate(-.401 -2.403)"/>
            <path id="XMLID_108_3" d="M12.536 8H7.56q-.707.79-1.344 1.657h4.974q.638-.866 1.346-1.657" class="cls-11" transform="translate(-.981 -1.373)"/>
            <path id="XMLID_107_3" d="M18.424 3h-4.981a19.921 19.921 0 0 0-2.432 1.657h4.978A19.957 19.957 0 0 1 18.424 3" class="cls-11" transform="translate(-1.804 -.515)"/>
            <path id="XMLID_106_3" d="M10.489 45H5.516q.577.861 1.219 1.657h4.976q-.644-.8-1.223-1.657" class="cls-11" transform="translate(-.861 -7.723)"/>
            <path id="XMLID_105_3" d="M9.832 50a20.546 20.546 0 0 0 2.091 1.657H16.9A20.381 20.381 0 0 1 14.8 50z" class="cls-11" transform="translate(-1.602 -8.581)"/>
        </g>
        <g id="그룹_3752" transform="translate(527.827 690.654)">
            <path id="사각형_1994" d="M0 0H101.884V139.67H0z" class="cls-12" transform="translate(28.613 6.277)"/>
            <path id="사각형_1995" d="M0 0H39.665V139.67H0z" class="cls-13" transform="translate(130.497 6.277)"/>
            <rect id="사각형_1996" width="152.11" height="9.054" class="cls-13" rx="2.367" transform="translate(22.065)"/>
            <path id="패스_8571" d="M424.419 330.986v-.961a4.047 4.047 0 0 0-4.046-4.046h42.346a4.047 4.047 0 0 1 4.046 4.046v.961a4.046 4.046 0 0 1-4.046 4.046h-42.346a4.046 4.046 0 0 0 4.046-4.046z" class="cls-14" transform="translate(-292.591 -325.979)"/>
            <g id="그룹_3693" transform="translate(30.597 145.947)">
                <path id="사각형_1997" d="M0 0H11.64V5.399H0z" class="cls-12"/>
                <path id="사각형_1998" d="M0 0H11.64V5.399H0z" class="cls-12" transform="translate(86.274)"/>
            </g>
            <g id="그룹_3694" transform="translate(69.512 145.947)">
                <path id="사각형_1999" d="M0 0H11.64V5.399H0z" class="cls-14"/>
                <path id="사각형_2000" d="M0 0H11.64V5.399H0z" class="cls-14" transform="translate(86.274)"/>
            </g>
            <g id="그룹_3696" transform="translate(30.962 11.76)">
                <path id="패스_8572" d="M448.153 333.714v35.239h95.473v-35.239zm-.856-.856h97.186v36.952H447.3v-36.952z" class="cls-15" transform="translate(-447.297 -332.858)"/>
                <g id="그룹_3695" transform="translate(26.206 3.788)">
                    <path id="사각형_2001" d="M0 0H44.774V3.31H0z" class="cls-16"/>
                    <path id="사각형_2002" d="M0 0H44.774V0.949H0z" class="cls-17" transform="translate(0 2.361)"/>
                </g>
            </g>
            <g id="그룹_3698" transform="translate(30.962 51.449)">
                <path id="패스_8573" d="M448.153 356.931v35.239h95.473v-35.239zm-.856-.856h97.186v36.952H447.3v-36.952z" class="cls-15" transform="translate(-447.297 -356.075)"/>
                <g id="그룹_3697" transform="translate(26.206 3.788)">
                    <path id="사각형_2003" d="M0 0H44.774V3.31H0z" class="cls-16"/>
                    <path id="사각형_2004" d="M0 0H44.774V0.949H0z" class="cls-17" transform="translate(0 2.361)"/>
                </g>
            </g>
            <path id="패스_8574" d="M544.483 379.292v52.134H447.3v-52.134z" class="cls-13" transform="translate(-416.335 -288.154)"/>
            <g id="그룹_3700" transform="translate(0 91.786)">
                <path id="패스_8575" d="M451.343 381.392h37.973v22.478h-37.973a4.047 4.047 0 0 1-4.046-4.046v-14.386a4.047 4.047 0 0 1 4.046-4.046z" class="cls-18" transform="translate(-361.168 -378.45)"/>
                <rect id="사각형_2005" width="47.49" height="22.477" fill="#e69926" rx="2.367" transform="translate(76.639 2.943)"/>
                <rect id="사각형_2006" width="47.49" height="22.477" class="cls-18" rx="2.367" transform="translate(69.884 2.943)"/>
                <rect id="사각형_2007" width="47.49" height="22.477" fill="#e6c026" rx="2.367" transform="translate(63.13 2.943)"/>
                <path id="사각형_2008" d="M0 0H97.185V51.083H0z" class="cls-12" transform="translate(0 .41)"/>
                <g id="그룹_3699" transform="translate(26.206 3.788)">
                    <path id="사각형_2009" d="M0 0H44.774V3.31H0z" class="cls-16"/>
                    <path id="사각형_2010" d="M0 0H44.774V0.949H0z" class="cls-17" transform="translate(0 2.361)"/>
                </g>
                <path id="패스_8576" d="M562.595 379.671V431.8h-97.186v-52.129zm-96.329 51.277h95.473v-50.421h-95.473z" class="cls-15" transform="translate(-465.409 -379.671)"/>
                <path id="사각형_2011" d="M0 0H30.962V34.736H0z" class="cls-13" transform="translate(97.185 16.757)"/>
            </g>
        </g>
    </g>
</svg>
