<svg xmlns="http://www.w3.org/2000/svg" width="380" height="351" viewBox="0 0 380 351">
    <defs>
        <clipPath id="8twf1x878a">
            <path fill="#fff" stroke="#707070" d="M0 0H379V335H0z" transform="translate(1170 487)"/>
        </clipPath>
    </defs>
    <g>
        <path fill="#f3e9ff" d="M0 0H380V350H0z" transform="translate(-1180 -444) translate(1180 444)"/>
        <g clip-path="url(#8twf1x878a)" transform="translate(-1180 -444) translate(10 -27)">
            <g>
                <path fill="#e6d1ff" d="M579.1 463.52c-2.27 34.189-23.6 232.607-213.391 246.033 0 0-19.582-134.241 209.207-248.823a2.9 2.9 0 0 1 4.184 2.79z" transform="rotate(-8 4404.917 -6886.709) translate(-365.29 -460.419)"/>
                <path fill="#fff" d="M592.9 562.53c-4.973 9.732-10.152 19.372-15.41 28.959s-10.638 19.112-16.123 28.574q-16.452 28.383-34.315 55.908c-11.967 18.3-24.471 36.251-37.917 53.468q-10.043 12.944-21.01 25.109a274.383 274.383 0 0 1-23.172 23.023 1.173 1.173 0 1 0 1.54 1.77A276.644 276.644 0 0 0 469.74 756q10.966-12.274 20.977-25.333c13.4-17.347 25.84-35.4 37.733-53.791s23.187-37.156 34.068-56.153q8.162-14.248 15.989-28.682c5.214-9.625 10.344-19.291 15.277-29.071a.5.5 0 0 0-.886-.45z" transform="rotate(-8 4404.917 -6886.709) translate(-402.279 -533.656)"/>
            </g>
        </g>
        <path fill="#a290fe" d="M10740-9176s23.2 13.988 54.267 9.208 68.11-36.445 109.335-39.433 48.115-4.738 48.115-4.738H10740z" transform="translate(-1180 -444) translate(-9560 9655)"/>
    </g>
</svg>
