<svg xmlns="http://www.w3.org/2000/svg" width="380" height="370" viewBox="0 0 380 370">
    <defs>
        <clipPath id="clip-path">
            <path id="사각형_1945" fill="#fff" stroke="#707070" d="M0 0H380V298H0z" transform="translate(1180 444)"/>
        </clipPath>
        <clipPath id="clip-path-2">
            <circle id="타원_466" cx="33.341" cy="33.341" r="33.341" class="cls-2" transform="rotate(-80.783 38.68 32.91)"/>
        </clipPath>
        <clipPath id="clip-path-3">
            <circle id="타원_470" cx="31.422" cy="31.422" r="31.422" class="cls-2" transform="rotate(-14.872 61.793 8.065)"/>
        </clipPath>
        <clipPath id="clip-path-4">
            <path id="패스_8010" d="M1184.606 529.658a25.937 25.937 0 1 0 25.937-25.936 25.937 25.937 0 0 0-25.937 25.936z" class="cls-2" transform="translate(-1184.606 -503.722)"/>
        </clipPath>
        <clipPath id="clip-path-5">
            <circle id="타원_471" cx="15.225" cy="15.225" r="15.225" class="cls-2" transform="rotate(-22.5 29.29 5.826)"/>
        </clipPath>
        <clipPath id="clip-path-6">
            <path id="패스_8050" d="M813.259 590.5a22.024 22.024 0 1 0 22.024-22.024 22.024 22.024 0 0 0-22.024 22.024z" class="cls-2" transform="translate(-813.259 -568.476)"/>
        </clipPath>
        <clipPath id="clip-path-7">
            <circle id="타원_473" cx="35.264" cy="35.264" r="35.264" class="cls-2" transform="matrix(.997 -.071 .071 .997 0 5)"/>
        </clipPath>
        <clipPath id="clip-path-8">
            <circle id="타원_474" cx="18.329" cy="18.329" r="18.329" class="cls-2" transform="rotate(-45 31.29 12.96)"/>
        </clipPath>
        <clipPath id="clip-path-9">
            <path id="패스_8107" d="M925.981 1107.946a25.113 25.113 0 1 1-25.112-25.112 25.113 25.113 0 0 1 25.112 25.112z" class="cls-2" transform="translate(-875.755 -1082.834)"/>
        </clipPath>
        <style>
            .cls-5{fill:#fff}.cls-2,.cls-4{fill:none}.cls-4{stroke:#ddcdef;stroke-width:2px}.cls-7{fill:#13375b}.cls-9{fill:#c24c32}.cls-10{fill:#f47458}.cls-11{fill:#feacaa}.cls-12{fill:#e69290}.cls-14{fill:#f7cc7f}.cls-15{fill:#c4483c}.cls-17{fill:#466eb6}.cls-20{fill:#96d9c9}.cls-24{fill:#8ca5d2}.cls-25{fill:#f7a491}.cls-26{fill:#0e2e35}.cls-28{fill:#fadfae}.cls-29{fill:#393637}.cls-32{fill:#4d1c86}
        </style>
    </defs>
    <g id="그룹_3895" transform="translate(-1180 -444)">
        <g id="마스크_그룹_17" clip-path="url(#clip-path)">
            <g id="그룹_3503" transform="rotate(-8 1136.838 -3138.864)">
                <g id="그룹_3506" transform="translate(697.617 505.976)">
                    <path id="패스_8333" d="M1018.17 620.555l-34.565 45.357" class="cls-4" transform="translate(-702.162 -509.797)"/>
                    <path id="패스_8334" d="M902.534 627.158l39.29-28.561" class="cls-4" transform="translate(-701.029 -507.873)"/>
                    <path id="패스_8335" d="M801.451 512.843l29.386 83.378 69.515 28.866" class="cls-4" transform="translate(-699.616 -506.674)"/>
                    <path id="패스_8332" d="M698.173 676.08l120.913-82.834 43.654-78.115 85.773 60.5" class="cls-4" transform="translate(-698.173 -506.706)"/>
                    <path id="패스_8331" d="M827.365 676.942l-5.8-75.707-74.318-24.471" class="cls-4" transform="translate(-698.859 -507.568)"/>
                    <path id="패스_8330" d="M1014.181 617.331l-62.628-39.558 6.472-71.185H873.9l-73.584 6.1-57.517 13.6v48.805l-33.119 44.619-11.5 56.471 58.911 26.841 68.323-24.053 76.34-2.789-4.531-50.894 82.963 40.087" class="cls-4" transform="translate(-698.173 -506.587)"/>
                </g>
                <g id="그룹_3120" transform="translate(824.353 462.889)">
                    <circle id="타원_450" cx="29.25" cy="29.25" r="29.25" class="cls-5" transform="rotate(-58.282 44.629 24.882)"/>
                </g>
                <g id="그룹_3121" transform="translate(724.479 660.083)">
                    <circle id="타원_451" cx="29.611" cy="29.611" r="29.611" class="cls-5" transform="rotate(-80.783 34.354 29.229)"/>
                </g>
                <g id="그룹_3126" transform="translate(713.312 498.326)">
                    <circle id="타원_455" cx="24.535" cy="24.535" r="24.535" class="cls-5"/>
                </g>
                <g id="그룹_3127" transform="translate(911.095 542.133)">
                    <circle id="타원_456" cx="35.981" cy="35.981" r="35.981" class="cls-5" transform="rotate(-82.534 40.657 35.676)"/>
                </g>
                <g id="그룹_3128" transform="translate(658.401 575.697)">
                    <circle id="타원_457" cx="33.576" cy="33.576" r="33.576" class="cls-5" transform="rotate(-76.7 41.302 32.685)"/>
                </g>
                <g id="그룹_3130" transform="translate(959.688 640.919)">
                    <circle id="타원_458" cx="16.367" cy="16.367" r="16.367" class="cls-5" transform="rotate(-76.7 20.133 15.933)"/>
                </g>
                <g id="그룹_3136" transform="translate(774.144 544.858)">
                    <circle id="타원_461" cx="37.856" cy="37.856" r="37.856" class="cls-5" transform="rotate(-76.717 46.554 36.843)"/>
                </g>
                <g id="그룹_3137" transform="translate(878.635 655.71)">
                    <path id="패스_7909" d="M1339.9 1067.635a20.487 20.487 0 1 1-20.487-20.487 20.487 20.487 0 0 1 20.487 20.487z" class="cls-5" transform="translate(-1298.926 -1047.148)"/>
                </g>
                <path id="패스_7913" d="M1508.251 581.808a9.24 9.24 0 1 0 9.24-9.24 9.24 9.24 0 0 0-9.24 9.24z" class="cls-5" transform="translate(-559.927 -69.664)"/>
                <circle id="타원_464" cx="8.945" cy="8.945" r="8.945" class="cls-5" transform="rotate(-45 1011.613 -693.682)"/>
                <path id="패스_7914" d="M1319.042 926.953a10.907 10.907 0 1 0 10.907-10.907 10.907 10.907 0 0 0-10.907 10.907z" class="cls-5" transform="translate(-432.556 -300.331)"/>
                <path id="패스_7916" d="M1665.271 904.037a7.077 7.077 0 1 0 7.077-7.077 7.077 7.077 0 0 0-7.077 7.077z" class="cls-5" transform="translate(-658.723 -287.318)"/>
                <path id="패스_7917" d="M1122.365 1094.88a7.311 7.311 0 1 0 7.311-7.311 7.311 7.311 0 0 0-7.311 7.311z" class="cls-5" transform="translate(-303.553 -416.871)"/>
                <circle id="타원_465" cx="10.907" cy="10.907" r="10.907" class="cls-5" transform="rotate(-4.065 9716.186 -9348.487)"/>
                <path id="패스_7918" d="M872.653 768.729a10.907 10.907 0 1 0 10.907-10.907 10.907 10.907 0 0 0-10.907 10.907z" class="cls-5" transform="translate(-140.282 -195.676)"/>
                <g id="그룹_3142" transform="translate(915.837 541.85)">
                    <g id="그룹_3141" clip-path="url(#clip-path-2)">
                        <g id="그룹_3140" transform="translate(-52.818 15.709)">
                            <path id="패스_7920" d="M1480.83 748.054c9.132-4.851 19.776-.505 20.572 12.236s-8.194 17.233-16.828 16.389-17.122-23.279-3.744-28.625z" class="cls-7" transform="translate(-1401.307 -746.12)"/>
                            <path id="패스_7921" d="M1507.519 827.216a9.085 9.085 0 1 0 9.085-9.085 9.085 9.085 0 0 0-9.085 9.085z" class="cls-7" transform="translate(-1422.486 -791.429)"/>
                            <path id="패스_7922" fill="#f29383" d="M1352.819 826.247l-31.019-1.067s-24.177-7.556-24.925-7.765-4.453-9.888-5.434-9.06 2.143 4.846.881 5.57-13.062-3.145-13.041-2.187c.038 1.792 7.132 2.655 7 3.5s-7.319-1.608-8.03-.286 7.016 1.662 7.226 2.333-7.316.685-6.759 2.1c.3.769 6.693-.18 6.519.779s-4.959 2.466-4.527 3.318 3.85-1.818 6.442-1.459 4.654-.764 8.6 1.051 17.13 9.893 26 10.811 28.465 3 28.465 3z" transform="translate(-1278.2 -785.246)"/>
                            <path id="패스_7923" d="M1455.85 851.307c16.988.792 2.052 15.018 2.052 15.018l-25.1-3.563c-.756-5.006.534-10.979.6-12.312 5.205-.322 18.264.662 22.448.857z" class="cls-9" transform="translate(-1375.324 -811.723)"/>
                            <path id="패스_7924" d="M1493.5 845.538s7.3-.13 11.182 4.11-6.1 37.281-6.805 42.677 3.6 19.743 3.6 19.743-23.044 4.648-29.63.279c0 0-.706-38.8 0-42.655s6.586-19.529 8-21.071 13.653-3.083 13.653-3.083z" class="cls-10" transform="translate(-1399.841 -808.673)"/>
                            <path id="패스_7925" d="M1507.087 809.737s.05.29.142.782c.437 2.364 2.121 10.206 3.26 12.361 1.375 2.6-4.708 10.914-10.562 9.9-1.743-.3 1.473-7.634 1.318-8.411-.3-1.487-.7-3.515-1.108-5.6l-.686-3.481-1.137-5.776z" class="cls-11" transform="translate(-1416.694 -786.009)"/>
                            <path id="패스_7926" d="M1507.229 810.519c-.092-.493-.142-.782-.142-.782l-8.773-.219 1.137 5.776.683 3.461a8.2 8.2 0 0 0 4.188-2.1 11.1 11.1 0 0 0 3.173-4.73c-.108-.56-.195-1.039-.266-1.406z" class="cls-12" transform="translate(-1416.694 -786.009)"/>
                            <path id="패스_7927" d="M1491.579 756.171a7.9 7.9 0 0 1 6.727 2.881c2.592 3.36 5.385 13.75-1.053 19.4s-12.8-.746-13.744-7.525-1.309-15.001 8.07-14.756z" class="cls-11" transform="translate(-1407.091 -752.429)"/>
                            <path id="패스_7928" d="M1478.219 789.447c.769 1.5 2.058 2.326 2.881 1.852s.867-2.073.1-3.571-2.059-2.327-2.882-1.852-.868 2.073-.099 3.571z" class="cls-11" transform="translate(-1403.705 -771.05)"/>
                            <path id="패스_7929" d="M1504.8 753.037s5.524 9.881 9.476 10.337 4.471 5.707 4.471 5.707-1.413-12.1-5.325-14.431a14.5 14.5 0 0 0-8.622-1.613z" class="cls-7" transform="translate(-1420.776 -750.406)"/>
                            <path id="패스_7930" d="M1527.422 783.058c-.322 1.755.325 3.364 1.444 3.594s2.286-1.005 2.607-2.76-.325-3.364-1.443-3.594-2.286 1.002-2.608 2.76z" class="cls-11" transform="translate(-1434.957 -767.607)"/>
                            <path id="패스_7931" d="M1494.343 883.912s17.837-9.138 21.767-14.008 3.069-14.2-2-16.437-25.676 18.4-25.676 18.4z" class="cls-9" transform="translate(-1410.48 -813.555)"/>
                        </g>
                    </g>
                </g>
                <g id="그룹_3159" transform="translate(659.729 576.785)">
                    <g id="그룹_3158" clip-path="url(#clip-path-3)">
                        <g id="그룹_3157" transform="translate(-16.715 12.056)">
                            <path id="패스_7990" d="M616.905 964.506s11.093-2.965 11.223-2.071c2.86 19.575 4.1 26.65 4.5 26.844 1.371.66 18.875-16.208 22.043-17.4a13.347 13.347 0 0 1 4.779-.521c3.806.013 4.557.007 4.557.007l.139.006.073 3.578c-4.184 3.969-8.294 80.6-9.121 80.581-.924-.019-18.315-.112-17.488-1.563 0 0 4.2-23.6 7.511-39.156 1.11-5.222 4.212-16.14 4.212-16.14-4.251 2.273-20.862 11-23.557 9.972-8.382-3.192-8.871-44.137-8.871-44.137z" class="cls-14" transform="translate(-616.905 -917.72)"/>
                            <path id="패스_7991" d="M690.853 1026.6a238.975 238.975 0 0 1 8.216-28.283c3.281-8.021 6.043-11.422 6.043-11.422l12.989.385s.3.083.391.1c1.062.168 1.093 37.991.521 52.133s-3.711 32.546-3.711 32.546l-3.706-.352-.1 3.164c-18.792 3.313-29.283-5.951-29.283-5.951s6.167-30.145 8.64-42.32z" class="cls-14" transform="translate(-657.995 -933.218)"/>
                            <path id="패스_7992" d="M756.521 896.2s12.843-.937 16.122-2.524c1.987-.963 18.161-14.71 18.161-14.71l-1.121-35.643 11.6-1.188s7.059 39.244 5.084 43.612c-2.038 4.511-25.743 23.481-30.371 31.564-2.667 4.657-.137 67.881-1 68.466-6.172 3.421-32.118 6.45-31.715 4.462 11.144-54.933 13.24-94.039 13.24-94.039z" class="cls-14" transform="translate(-696.415 -842.131)"/>
                            <path id="패스_7993" d="M754.2 954.4l.669 11.442s-8.017 14.687-12.38 12.784c-3.661-1.6-.739-12.686-.739-12.686s.56-2.54 1.353-5.461a21 21 0 0 0 .921-5.858c-.199-3.906 10.176-.221 10.176-.221z" class="cls-11" transform="translate(-694.758 -911.781)"/>
                            <path id="패스_7994" d="M748.408 954.626c-.193-3.912 10.177-.222 10.177-.222l.066 1.118a5.784 5.784 0 0 1-1.112 1.333 14.133 14.133 0 0 1-9.922 3.14 19.726 19.726 0 0 0 .791-5.369z" class="cls-12" transform="translate(-699.147 -911.781)"/>
                            <g id="그룹_3156" transform="translate(42.967 10.419)">
                                <path id="패스_7995" d="M741 887.35s-4.109 6.562-4.286 12a28.164 28.164 0 0 0 1.07 9.11l13.3-16.772z" class="cls-15" transform="translate(-735.241 -881.002)"/>
                                <path id="패스_7996" d="M732.8 911.208c-.144 1.906.638 3.519 1.745 3.6s2.122-1.393 2.266-3.3-.638-3.518-1.745-3.6-2.125 1.392-2.266 3.3z" class="cls-12" transform="translate(-732.78 -893.935)"/>
                                <path id="패스_7997" d="M754.048 896.936c.313-.076.7 15.725-3.785 19.564s-12.444 4.374-14.87.689c-2.683-4.075-.671-20.787 6.047-24.5s12.608 4.247 12.608 4.247z" class="cls-11" transform="translate(-733.701 -883.738)"/>
                                <path id="패스_7998" d="M762.035 873.6c3.576 2.974 5.328 5.168 7.837 10.556 3.084 6.624-2.5 13.718-7.271 16.6s-5.082 6.232-5.082 6.232l-.254-2.051a5.129 5.129 0 0 1 .013-1.893 8.838 8.838 0 0 1 .644-1.687c.389-.892 1.633-3.943 2.128-4.753 1.306-2.135 1.563-2.6.838-4.575-.558-1.523-.047-4.925-.914-7.437l-6.551-1.234s-4.1-.873-6.222-3.193c-6.087-6.66 5.399-14.565 14.834-6.565z" class="cls-15" transform="translate(-740.783 -870.229)"/>
                                <path id="패스_7999" d="M782.178 929.594c-.757 1.755-.544 3.534.476 3.974s2.46-.626 3.217-2.38.543-3.534-.477-3.974-2.459.625-3.216 2.38z" class="cls-11" transform="translate(-763.576 -906.021)"/>
                            </g>
                        </g>
                    </g>
                </g>
                <g id="그룹_3163" transform="translate(838.867 477.376)">
                    <g id="그룹_3162" clip-path="url(#clip-path-4)">
                        <g id="그룹_3161" transform="translate(-19.585 4.163)">
                            <path id="패스_8000" d="M1311.043 615.959s-9.156-2.447-9.264-1.709c-2.361 16.158-3.384 22-3.716 22.157-1.132.545-15.58-13.379-18.2-14.365a11.01 11.01 0 0 0-3.944-.431c-3.142.01-3.762.006-3.762.006h-.115l-.06 2.953c3.454 3.275 6.846 66.527 7.529 66.514.763-.016 15.117-.093 14.435-1.29 0 0-3.47-19.479-6.2-32.32-.917-4.311-3.476-13.322-3.476-13.322 3.509 1.876 17.22 9.076 19.445 8.231 6.925-2.626 7.328-36.424 7.328-36.424z" class="cls-7" transform="translate(-1220 -577.341)"/>
                            <path id="패스_8001" d="M1264.214 667.218a197.243 197.243 0 0 0-6.782-23.345c-2.708-6.621-4.988-9.428-4.988-9.428l-10.72.317s-.248.069-.323.081c-.876.138-.9 31.358-.43 43.031a256.06 256.06 0 0 0 3.063 26.864l3.059-.29.086 2.612c15.511 2.735 24.171-4.912 24.171-4.912s-5.094-24.884-7.136-34.93z" class="cls-17" transform="translate(-1200.293 -590.135)"/>
                            <path id="패스_8002" d="M1173.219 559.576s-10.6-.773-13.307-2.083c-1.641-.795-14.991-12.142-14.991-12.142l.924-29.421-9.573-.981s-5.827 32.393-4.2 36c1.682 3.723 21.25 19.382 25.069 26.054 2.2 3.844.113 56.032.827 56.514 5.1 2.824 26.512 5.324 26.179 3.683-9.199-45.342-10.928-77.624-10.928-77.624z" class="cls-7" transform="translate(-1131.788 -514.949)"/>
                            <path id="패스_8003" d="M1244.072 607.622l-.552 9.445s6.617 12.123 10.219 10.552c3.022-1.318.61-10.471.61-10.471s-.462-2.1-1.117-4.508a17.335 17.335 0 0 1-.761-4.835c.16-3.229-8.399-.183-8.399-.183z" class="cls-11" transform="translate(-1202.089 -572.44)"/>
                            <path id="패스_8004" d="M1253.316 607.805c.16-3.229-8.4-.183-8.4-.183l-.054.923a4.779 4.779 0 0 0 .918 1.1 11.667 11.667 0 0 0 8.19 2.592 16.279 16.279 0 0 1-.654-4.432z" class="cls-12" transform="translate(-1202.933 -572.44)"/>
                            <g id="그룹_3160" transform="translate(30.835 8.6)">
                                <path id="패스_8005" d="M1254.74 552.273s3.392 5.417 3.538 9.9a23.239 23.239 0 0 1-.883 7.52l-10.978-13.844z" class="cls-10" transform="translate(-1234.748 -547.033)"/>
                                <path id="패스_8006" d="M1275.99 571.968c.119 1.573-.526 2.9-1.441 2.973s-1.752-1.15-1.87-2.723.526-2.9 1.441-2.973 1.752 1.149 1.87 2.723z" class="cls-12" transform="translate(-1251.263 -557.71)"/>
                                <path id="패스_8007" d="M1236.135 560.186c-.259-.062-.575 12.98 3.125 16.148s10.271 3.611 12.274.569c2.215-3.363.554-17.159-4.992-20.225s-10.407 3.508-10.407 3.508z" class="cls-11" transform="translate(-1228.189 -549.293)"/>
                                <path id="패스_8008" d="M1222.146 540.924c-2.952 2.454-4.4 4.266-6.468 8.714-2.546 5.468 2.067 11.323 6 13.705s4.195 5.144 4.195 5.144l.209-1.693a4.252 4.252 0 0 0-.01-1.562 7.312 7.312 0 0 0-.532-1.393c-.321-.736-1.348-3.254-1.756-3.923-1.078-1.763-1.29-2.143-.692-3.776.461-1.257.039-4.065.754-6.138l5.407-1.019s3.386-.72 5.136-2.636c5.026-5.501-4.454-12.029-12.243-5.423z" class="cls-10" transform="translate(-1214.946 -538.142)"/>
                                <path id="패스_8009" d="M1234.453 587.143c.625 1.448.449 2.917-.393 3.281s-2.031-.516-2.655-1.965-.448-2.917.393-3.281 2.031.517 2.655 1.965z" class="cls-11" transform="translate(-1225.067 -567.685)"/>
                            </g>
                        </g>
                    </g>
                </g>
                <g id="그룹_3167" transform="translate(959.485 640.706)">
                    <g id="그룹_3166" clip-path="url(#clip-path-5)">
                        <g id="그룹_3165" transform="translate(-6.829 7.111)">
                            <path id="패스_8011" d="M1519.934 1071.973s5.375-1.436 5.438-1c1.386 9.485 1.987 12.912 2.182 13.006.664.32 9.145-7.853 10.68-8.432a6.473 6.473 0 0 1 2.315-.253c1.845.006 2.209 0 2.209 0h.067l.036 1.734c-2.027 1.922-4.019 39.051-4.419 39.043-.448-.009-8.874-.054-8.474-.757 0 0 2.036-11.434 3.639-18.972.538-2.531 2.041-7.821 2.041-7.821-2.06 1.1-10.108 5.328-11.414 4.832-4.063-1.541-4.3-21.38-4.3-21.38z" class="cls-14" transform="translate(-1519.934 -1049.305)"/>
                            <path id="패스_8012" d="M1555.763 1102.062a115.694 115.694 0 0 1 3.981-13.7 23.867 23.867 0 0 1 2.928-5.534l6.293.186s.146.04.19.047c.514.081.53 18.407.252 25.259a150.136 150.136 0 0 1-1.8 15.769l-1.8-.17-.05 1.533c-9.105 1.605-14.188-2.883-14.188-2.883s2.995-14.611 4.194-20.507z" class="cls-17" transform="translate(-1539.842 -1056.814)"/>
                            <path id="패스_8013" d="M1587.581 1038.877s6.223-.453 7.811-1.223c.963-.466 8.8-7.127 8.8-7.127l-.543-17.27 5.619-.576s3.42 19.015 2.464 21.131c-.988 2.185-12.473 11.377-14.715 15.294-1.292 2.256-.066 32.889-.485 33.173-2.99 1.658-15.562 3.125-15.366 2.162a347.408 347.408 0 0 0 6.415-45.564z" class="cls-14" transform="translate(-1558.458 -1012.681)"/>
                            <path id="패스_8014" d="M1586.454 1067.079l.324 5.544s-3.884 7.116-6 6.194c-1.774-.774-.358-6.147-.358-6.147s.271-1.231.656-2.646a10.209 10.209 0 0 0 .446-2.838c-.093-1.894 4.932-.107 4.932-.107z" class="cls-11" transform="translate(-1557.655 -1046.428)"/>
                            <path id="패스_8015" d="M1583.65 1067.187c-.094-1.9 4.931-.108 4.931-.108l.032.542a2.8 2.8 0 0 1-.539.646 6.85 6.85 0 0 1-4.807 1.522 9.569 9.569 0 0 0 .383-2.602z" class="cls-12" transform="translate(-1559.782 -1046.428)"/>
                            <g id="그룹_3164" transform="translate(20.818 5.048)">
                                <path id="패스_8016" d="M1580.058 1034.59s-1.991 3.179-2.077 5.813a13.655 13.655 0 0 0 .518 4.414l6.444-8.126z" class="cls-7" transform="translate(-1577.27 -1031.514)"/>
                                <path id="패스_8017" d="M1576.086 1046.15c-.07.924.309 1.705.846 1.746s1.028-.675 1.1-1.6-.309-1.7-.845-1.745-1.031.676-1.101 1.599z" class="cls-12" transform="translate(-1576.078 -1037.781)"/>
                                <path id="패스_8018" d="M1586.383 1039.235c.152-.037.338 7.619-1.834 9.479s-6.029 2.119-7.2.334c-1.3-1.974-.325-10.072 2.93-11.872s6.104 2.059 6.104 2.059z" class="cls-11" transform="translate(-1576.524 -1032.841)"/>
                                <path id="패스_8019" d="M1590.253 1027.928a12.3 12.3 0 0 1 3.8 5.115c1.494 3.21-1.213 6.647-3.523 8.045s-2.462 3.02-2.462 3.02l-.123-.994a2.506 2.506 0 0 1 .006-.917 4.289 4.289 0 0 1 .313-.817c.188-.432.791-1.911 1.031-2.3.633-1.034.757-1.258.406-2.216-.27-.738-.023-2.386-.443-3.6l-3.174-.6a6.611 6.611 0 0 1-3.015-1.547c-2.953-3.235 2.612-7.067 7.184-3.189z" class="cls-7" transform="translate(-1579.956 -1026.295)"/>
                                <path id="패스_8020" d="M1600.012 1055.058c-.367.85-.264 1.712.231 1.926s1.192-.3 1.559-1.153.263-1.713-.231-1.926-1.192.303-1.559 1.153z" class="cls-11" transform="translate(-1590.999 -1043.637)"/>
                            </g>
                        </g>
                    </g>
                </g>
                <g id="그룹_3179" transform="translate(715.823 501.387)">
                    <g id="그룹_3178" clip-path="url(#clip-path-6)">
                        <g id="그룹_3177" transform="translate(5.712 7.659)">
                            <path id="패스_8041" d="M874.918 670.17s-4.962-6.629-6.774-9.766 1.234-1.094 4.346-1.92c1.178-.312.2-6.745 2.429-4.5 3.654 3.682 7.317 11.658 7.317 11.658z" class="cls-20" transform="translate(-853.162 -629.637)"/>
                            <path id="패스_8042" fill="#50bfa5" d="M849.882 650.385a59.927 59.927 0 0 0-9.222-1.482 23.194 23.194 0 0 0-4.994-.347c-1.8.391-5.187.569-5.5 8.393-.225 5.6-.863 19.452-1.5 28.807l22.95 1.393c-1.043-14.394 1.305-35.844-1.734-36.764z" transform="translate(-828.662 -626.479)"/>
                            <path id="패스_8043" d="M863.363 631.574l-3.6 6.628s2.715 4.84 5.283 4.969c2.155.109 1.817-3.078 1.817-3.078s.339-4.119 1.373-5.964-4.873-2.555-4.873-2.555z" class="cls-11" transform="translate(-848.228 -615.836)"/>
                            <path id="패스_8044" d="M868.633 634.228a13.568 13.568 0 0 0 3.626 2.724 10.575 10.575 0 0 1 .914-2.823c.478-.852-.523-1.461-1.739-1.871-1.629-.433-3.13-.685-3.13-.685l-.693 1.274a5.816 5.816 0 0 0 1.022 1.381z" class="cls-12" transform="translate(-853.168 -615.836)"/>
                            <g id="그룹_3176" transform="translate(11.02)">
                                <path id="패스_8045" d="M870.149 599.417c-.148-.106-3.7 8.18-2.161 11.162s5.615 4.95 7.673 3.512c2.276-1.59 4.764-10.867 2.02-14.255s-7.532-.419-7.532-.419z" class="cls-11" transform="translate(-864.181 -594.845)"/>
                                <path id="패스_8046" fill="#2f2b41" d="M871.858 589.154a9.867 9.867 0 0 0-5.78 1.457c-1.24-.193-3.058.017-5.52 2.339a7.245 7.245 0 0 0-.661 9.621 5.645 5.645 0 0 1 1.261 4.683l.691-1.009a6.469 6.469 0 0 0 1.033-2.542 5.321 5.321 0 0 0 .049-1.687c-.233-1.407 1.824-1.726 2.625-2.621.617-.688 1.144-2.509 2.132-3.655l1.022-.8a4.9 4.9 0 0 1 3.654-.014c1.57.842 3.08-5.52-.506-5.772z" transform="translate(-858.38 -589.131)"/>
                                <path id="패스_8047" d="M872.349 617.1c-.275 1.055-.992 1.782-1.6 1.624s-.881-1.143-.606-2.2.992-1.782 1.6-1.624.88 1.139.606 2.2z" class="cls-11" transform="translate(-865.713 -605.329)"/>
                            </g>
                            <path id="패스_8048" d="M884.062 630.088l3.366.751a1.508 1.508 0 0 1-1.853.973c-1.817-.351-1.513-1.724-1.513-1.724z" class="cls-5" transform="translate(-863.507 -614.901)"/>
                            <path id="패스_8049" d="M840.952 669.311s-6.026-7.658-7.5-10.666.1-7.767 3.023-8.331 11.38 13.174 11.38 13.174z" class="cls-20" transform="translate(-831.324 -627.617)"/>
                        </g>
                    </g>
                </g>
                <g id="그룹_3183" transform="translate(781.916 552.674)">
                    <g id="그룹_3182" clip-path="url(#clip-path-7)">
                        <g id="그룹_3181" transform="translate(7.029 9.718)">
                            <path id="패스_8051" d="M1168.632 876.533c.645.026 2.412.618 5 5.5 3.3 6.236 8.123 25.076 8.123 25.076l-14.4 5.361-1.85-3.932-3.046-30.274s5.995-1.738 6.173-1.731z" class="cls-24" transform="translate(-1116.946 -834.271)"/>
                            <path id="패스_8052" d="M1084.458 869.209c4.117.006 14.3 1.207 19.031 2.717 0 0 3.473 29.852-3.127 52.535-1.478 5.078 1.222 21.049 1.222 21.049l-42.659-.563s5.054-38.611 3.15-44.848-1.949-27.972-1.949-27.972.292-.046 9.585-1.652a96.529 96.529 0 0 1 14.747-1.266z" class="cls-17" transform="translate(-1051.802 -829.663)"/>
                            <path id="패스_8053" d="M1049.622 885.949c3.989-1.5 5.94 34.442 6.478 49.234 7.063.679 19.374.005 22.44-.225 1.442-.108 4.766-1.326 6.2-1.514a14.355 14.355 0 0 1 3.524-.167c.265.046 7.628 3.057 8.258 3.717.781.819 2.893 2.884 2.536 3.778s-4.061-2.489-4.061-2.489l-1.81-1.015c2.254 2.2 6.553 5.1 5.934 6.158-.6 1.03-4.482-1.913-7.246-3.919 2.371 2.142 5.316 5.973 4.637 6.57-.61.537-3.96-3.9-7.541-5.177-1.327-.473-2.649.838-3.693 1a7.5 7.5 0 0 1-2.7.151l-3.877-1.1c-1.321.119-1.354.9-2.687 1.184-1.548.33-4.088.677-6.06 1.159-11.353 2.773-15.139 4.062-18.616 4.059-10.532-.009-11.138-57.867-1.716-61.404z" class="cls-25" transform="translate(-1041.764 -840.167)"/>
                            <path id="패스_8054" d="M1040.007 913.991c-.748-15.152-.638-33.828 7.856-37.014 3.351-1.257 9.259 6.3 8.2 37.321-4.538.375-11.195.676-16.056-.307z" class="cls-24" transform="translate(-1039.718 -834.469)"/>
                            <g id="그룹_3180" transform="translate(19.808)">
                                <path id="패스_8055" d="M1115.557 765.647a30.872 30.872 0 0 1-3.563-1.426 17.867 17.867 0 0 0-4.062-1.531c-2.248-.347-6.11-.116-8.242 2.2-2.657 2.882-7.378.521-6.427 15.615 1.076 17.085 10.576 15.21 10.806 14.921s8.473-10.93 8.473-10.93 2.882 6.3 2.882 6.072 14.714-20.01.133-24.921z" class="cls-26" transform="translate(-1093.138 -762.56)"/>
                                <path id="패스_8056" d="M1117.592 838.272l.82 6.1s1.837 8.8-.527 10.491-10.051-10.741-10.051-10.741l.812-15.469z" class="cls-11" transform="translate(-1102.385 -804.148)"/>
                                <path id="패스_8057" d="M1109.317 833.67a17.516 17.516 0 0 0 9.9 9.777l-.7-5.176-8.945-9.615z" class="cls-12" transform="translate(-1103.318 -804.148)"/>
                                <path id="패스_8058" d="M1115.324 783.083a8.141 8.141 0 0 1 9.375 8.232 61.912 61.912 0 0 1-.686 7.831c-1.089 7.047-5.9 13.252-9.076 12.7s-11.178-6.633-9.77-16.662c.87-6.193 4.902-11.253 10.157-12.101z" class="cls-11" transform="translate(-1100.603 -775.408)"/>
                                <path id="패스_8059" d="M1103.549 813.631a2.37 2.37 0 1 1-1.8-3.2 2.622 2.622 0 0 1 1.8 3.2z" class="cls-11" transform="translate(-1096.779 -792.66)"/>
                                <path id="패스_8060" d="M1104.48 789.207s3.844.955 5.27-1.517 6.527-7.808 13.011-5.6-5.706-5.378-6.224-5.378-6.744-.043-6.744-.043-4.8 3.947-4.971 4.381-1.556 5.161-1.556 5.161z" class="cls-26" transform="translate(-1099.511 -771.44)"/>
                            </g>
                            <path id="패스_8061" d="M1125.459 838.292l6.994 1.337a3.112 3.112 0 0 1-3.76 2.136c-3.77-.608-3.234-3.473-3.234-3.473z" class="cls-5" transform="translate(-1093.649 -810.21)"/>
                        </g>
                    </g>
                </g>
                <g id="그룹_3187" transform="translate(872.306 649.796)">
                    <g id="그룹_3186" clip-path="url(#clip-path-8)">
                        <g id="그룹_3185" transform="translate(9.994 11.39)">
                            <path id="패스_8062" d="M1379.664 1121.154c-.335.014-1.254.321-2.6 2.86-1.715 3.242-4.222 13.034-4.222 13.034l7.483 2.787.962-2.044 1.583-15.735s-3.114-.906-3.206-.902z" class="cls-28" transform="translate(-1372.845 -1099.188)"/>
                            <path id="패스_8063" d="M1329.4 1117.348a45.729 45.729 0 0 0-9.892 1.412s-1.805 15.515 1.625 27.305c.768 2.639-.635 10.94-.635 10.94l22.173-.293s-2.627-20.068-1.637-23.31 1.013-14.538 1.013-14.538-.152-.024-4.981-.859a50.3 50.3 0 0 0-7.666-.657z" class="cls-14" transform="translate(-1312.687 -1096.794)"/>
                            <path id="패스_8064" d="M1336.5 1126.049c-2.073-.778-3.087 17.9-3.367 25.589a90.426 90.426 0 0 1-11.663-.117c-.749-.056-2.477-.689-3.222-.787a7.443 7.443 0 0 0-1.831-.087 34.57 34.57 0 0 0-4.292 1.932c-.406.426-1.5 1.5-1.318 1.964s2.111-1.294 2.111-1.294l.941-.528c-1.171 1.144-3.406 2.652-3.084 3.2s2.329-.994 3.766-2.037c-1.232 1.113-2.762 3.1-2.41 3.415.317.279 2.059-2.027 3.919-2.691.69-.246 1.377.435 1.919.518a3.907 3.907 0 0 0 1.405.078l2.015-.571c.686.063.7.468 1.4.615.8.171 2.125.352 3.15.6 5.9 1.442 7.869 2.111 9.676 2.11 5.465 0 5.785-30.071.885-31.909z" class="cls-25" transform="translate(-1306.899 -1102.254)"/>
                            <path id="패스_8065" d="M1317.459 1140.624c.388-7.875.331-17.582-4.083-19.238-1.742-.654-4.813 3.275-4.26 19.4a33.19 33.19 0 0 0 8.343-.162z" class="cls-28" transform="translate(-1283.925 -1099.292)"/>
                            <g id="그룹_3184" transform="translate(8.385)">
                                <path id="패스_8066" d="M1340.165 1063.521a15.97 15.97 0 0 0 1.852-.742 9.3 9.3 0 0 1 2.111-.8 5.09 5.09 0 0 1 4.284 1.142c1.381 1.5 3.835.27 3.341 8.116-.56 8.88-5.5 7.906-5.617 7.755l-4.4-5.681s-1.5 3.276-1.5 3.156-7.65-10.394-.071-12.946z" class="cls-29" transform="translate(-1336.814 -1061.917)"/>
                                <path id="패스_8067" d="M1345.234 1101.268l-.426 3.173s-.955 4.572.273 5.453 5.224-5.583 5.224-5.583l-.422-8.04z" class="cls-11" transform="translate(-1338.135 -1083.532)"/>
                                <path id="패스_8068" d="M1350.371 1098.876a9.1 9.1 0 0 1-5.147 5.082l.362-2.69 4.65-5z" class="cls-12" transform="translate(-1338.487 -1083.532)"/>
                                <path id="패스_8069" d="M1347.856 1072.584a4.231 4.231 0 0 0-4.873 4.279 32.268 32.268 0 0 0 .356 4.069c.566 3.663 3.065 6.889 4.718 6.6s5.811-3.447 5.078-8.66c-.452-3.218-2.547-5.847-5.279-6.288z" class="cls-11" transform="translate(-1340.505 -1068.594)"/>
                                <path id="패스_8070" d="M1339.849 1088.461a1.232 1.232 0 1 0 .936-1.665 1.363 1.363 0 0 0-.936 1.665z" class="cls-11" transform="translate(-1328.365 -1077.561)"/>
                                <path id="패스_8071" d="M1352.566 1075.767s-2 .5-2.74-.789-3.392-4.058-6.762-2.908 2.965-2.8 3.235-2.8 3.505-.023 3.505-.023 2.494 2.052 2.583 2.277.809 2.682.809 2.682z" class="cls-29" transform="translate(-1340.146 -1066.532)"/>
                            </g>
                            <path id="패스_8072" d="M1357.236 1101.279l-3.635.695a1.618 1.618 0 0 0 1.954 1.11c1.961-.316 1.681-1.805 1.681-1.805z" class="cls-5" transform="translate(-1340.086 -1086.683)"/>
                        </g>
                    </g>
                </g>
                <g id="그룹_3197" transform="translate(732.974 668.942)">
                    <g id="그룹_3196" clip-path="url(#clip-path-9)">
                        <g id="그룹_3195" transform="translate(.927 6.906)">
                            <path id="패스_8095" d="M914.454 1116.088a21.225 21.225 0 0 0-1.939-10.228c-1.349-2.807-4.687-4.4-7.73-4.4-9.665-.012-10.894 12.758-17.047 17.684-1.88 1.505-3.981 2.731-5.76 4.354-6.569 5.994-3.61 17.089 2.422 22.343 4.185 3.646 10.764 5.718 15.923 2.867a16.218 16.218 0 0 0 6.193-6.671c2.067-3.846 3.4-8.284 4.869-12.383a46.21 46.21 0 0 0 3.069-13.566z" class="cls-14" transform="translate(-878.256 -1101.457)"/>
                            <path id="패스_8096" d="M949.783 1197.115s-7.218-7.4-9.076-10.617 1.265-1.122 4.454-1.968c1.207-.32.9-7.4 3.185-5.1a105.043 105.043 0 0 1 8.456 10.374z" class="cls-10" transform="translate(-917.199 -1150.23)"/>
                            <path id="패스_8097" fill="#b75742" d="M920.068 1170.893s-6.478-1.279-9.434 1.191.633 24.428.63 28.068-2.03 13.147-2.03 13.147 19.634 4.215 22.753-1.25c0 0 .887-20.82.755-23.438s-3.043-13.325-3.848-14.472-8.826-3.246-8.826-3.246z" transform="translate(-897.747 -1144.938)"/>
                            <path id="패스_8098" d="M934.24 1144.183s-.034.193-.1.523c-.294 1.582-1.425 6.827-2.19 8.269-.924 1.743 3.163 7.3 7.095 6.622 1.171-.2-.989-5.107-.886-5.626.2-.994.468-2.351.744-3.743l.461-2.328.764-3.863z" class="cls-25" transform="translate(-911.96 -1128.248)"/>
                            <path id="패스_8099" d="M937.781 1144.706l.1-.523 5.893-.147-.764 3.863-.458 2.315a5.52 5.52 0 0 1-2.814-1.408 7.412 7.412 0 0 1-2.131-3.164c.067-.37.128-.691.174-.936z" class="cls-10" transform="translate(-915.596 -1128.248)"/>
                            <path id="패스_8100" d="M938.076 1108.353a5.317 5.317 0 0 0-4.519 1.927c-1.741 2.247-3.618 9.2.708 12.976s8.6-.5 9.232-5.033.88-10.034-5.421-9.87z" class="cls-25" transform="translate(-911.829 -1105.786)"/>
                            <path id="패스_8101" d="M942.537 1104.471s-5.415 7.759-10.57 6.718l-.144-3.31.475-1.254 2.612-1.677 4.245-.968z" class="cls-14" transform="translate(-911.96 -1103.045)"/>
                            <path id="패스_8102" d="M963.086 1130.611c-.516 1-1.383 1.556-1.936 1.239s-.582-1.387-.066-2.388 1.383-1.556 1.936-1.239.58 1.386.066 2.388z" class="cls-25" transform="translate(-930.139 -1118.241)"/>
                            <path id="패스_8103" d="M929.874 1126.338c.216 1.174-.218 2.25-.97 2.4s-1.536-.673-1.752-1.846.218-2.25.97-2.4 1.537.672 1.752 1.846z" class="cls-25" transform="translate(-908.987 -1115.938)"/>
                            <path id="패스_8104" d="M946.632 1141.478l-4.074-.211a1.784 1.784 0 0 0 1.8 1.7c2.184.173 2.274-1.489 2.274-1.489z" class="cls-5" transform="translate(-918.714 -1126.505)"/>
                            <path id="패스_8105" d="M946.632 1141.478l-4.074-.211a1.784 1.784 0 0 0 1.8 1.7c2.184.173 2.274-1.489 2.274-1.489z" class="cls-5" transform="translate(-918.714 -1126.505)"/>
                            <path id="패스_8106" d="M911.14 1191.487s-4.251-9.424-4.9-13.082 2.492-8.248 5.778-7.952 8.214 16.567 8.214 16.567z" class="cls-10" transform="translate(-895.812 -1144.861)"/>
                        </g>
                    </g>
                </g>
            </g>
        </g>
        <g id="그룹_3029" transform="translate(1354.019 673.65)">
            <g id="그룹_3028" transform="translate(16.813 29.17)">
                <g id="그룹_3015">
                    <path id="패스_7602" d="M107.6 357.654a4.391 4.391 0 1 1-4.391-4.391 4.39 4.39 0 0 1 4.391 4.391z" class="cls-32" transform="translate(-95.803 -353.263)"/>
                    <path id="사각형_1944" d="M7.571 0a7.571 7.571 0 0 1 7.571 7.571v5.506H0V7.571A7.571 7.571 0 0 1 7.571 0z" class="cls-32" transform="translate(0 8.715)"/>
                </g>
                <g id="그룹_3501" transform="translate(6.839 29.703)">
                    <path id="패스_7602-2" d="M107.6 357.654a4.391 4.391 0 1 1-4.391-4.391 4.39 4.39 0 0 1 4.391 4.391z" class="cls-32" transform="translate(-95.803 -353.263)"/>
                    <path id="사각형_1944-2" d="M7.571 0a7.571 7.571 0 0 1 7.571 7.571v5.506H0V7.571A7.571 7.571 0 0 1 7.571 0z" class="cls-32" transform="translate(0 8.715)"/>
                </g>
                <g id="그룹_3499" transform="translate(43.973)">
                    <path id="패스_7602-3" d="M107.6 357.654a4.391 4.391 0 1 1-4.391-4.391 4.39 4.39 0 0 1 4.391 4.391z" class="cls-32" transform="translate(-95.803 -353.263)"/>
                    <path id="사각형_1944-3" d="M7.571 0a7.571 7.571 0 0 1 7.571 7.571v5.506H0V7.571A7.571 7.571 0 0 1 7.571 0z" class="cls-32" transform="translate(0 8.715)"/>
                </g>
                <g id="그룹_3500" transform="translate(50.812 29.703)">
                    <path id="패스_7602-4" d="M107.6 357.654a4.391 4.391 0 1 1-4.391-4.391 4.39 4.39 0 0 1 4.391 4.391z" class="cls-32" transform="translate(-95.803 -353.263)"/>
                    <path id="사각형_1944-4" d="M7.571 0a7.571 7.571 0 0 1 7.571 7.571v5.506H0V7.571A7.571 7.571 0 0 1 7.571 0z" class="cls-32" transform="translate(0 8.715)"/>
                </g>
                <g id="그룹_3497" transform="translate(21.869)">
                    <path id="패스_7602-5" d="M107.6 357.654a4.391 4.391 0 1 1-4.391-4.391 4.39 4.39 0 0 1 4.391 4.391z" class="cls-32" transform="translate(-95.803 -353.263)"/>
                    <path id="사각형_1944-5" d="M7.571 0a7.571 7.571 0 0 1 7.571 7.571v5.506H0V7.571A7.571 7.571 0 0 1 7.571 0z" class="cls-32" transform="translate(0 8.715)"/>
                </g>
                <g id="그룹_3502" transform="translate(28.708 29.703)">
                    <path id="패스_7602-6" d="M107.6 357.654a4.391 4.391 0 1 1-4.391-4.391 4.39 4.39 0 0 1 4.391 4.391z" class="cls-32" transform="translate(-95.803 -353.263)"/>
                    <path id="사각형_1944-6" d="M7.571 0a7.571 7.571 0 0 1 7.571 7.571v5.506H0V7.571A7.571 7.571 0 0 1 7.571 0z" class="cls-32" transform="translate(0 8.715)"/>
                </g>
                <g id="그룹_3498" transform="translate(65.841)">
                    <path id="패스_7602-7" d="M107.6 357.654a4.391 4.391 0 1 1-4.391-4.391 4.39 4.39 0 0 1 4.391 4.391z" class="cls-32" transform="translate(-95.803 -353.263)"/>
                    <path id="사각형_1944-7" d="M7.571 0a7.571 7.571 0 0 1 7.571 7.571v5.506H0V7.571A7.571 7.571 0 0 1 7.571 0z" class="cls-32" transform="translate(0 8.715)"/>
                </g>
            </g>
            <path id="패스_7642" fill="#ee7033" d="M178.134 357.161a53.888 53.888 0 1 0-5.8 81.159l35.324 35.418a7.518 7.518 0 0 0 10.635 0l.108-.108a7.518 7.518 0 0 0 0-10.635l-35.322-35.42a53.853 53.853 0 0 0-4.945-70.414zm-8.745 67.464a41.52 41.52 0 1 1 0-58.718 41.52 41.52 0 0 1-.001 58.717z" transform="translate(-86.141 -335.591)"/>
            <path id="패스_8337" fill="#ff8246" d="M178.134 357.161a53.888 53.888 0 1 0-5.8 81.159l35.324 35.418a7.518 7.518 0 0 0 10.635 0l.108-.108a7.518 7.518 0 0 0 0-10.635l-35.322-35.42a53.853 53.853 0 0 0-4.945-70.414zm-8.745 67.464a41.52 41.52 0 1 1 0-58.718 41.52 41.52 0 0 1-.001 58.717z" transform="translate(-86.142 -341.377)"/>
        </g>
    </g>
</svg>
