<svg xmlns="http://www.w3.org/2000/svg" width="214.911" height="40.499" viewBox="0 0 214.911 40.499">
    <defs>
        <style>
            .cls-1{fill:#1d1d1b}.cls-2{fill:#f47d4c}.cls-3{fill:#4d1c86}
        </style>
    </defs>
    <g id="그룹_2317" transform="translate(-104.833 -31.749)">
        <path id="패스_8639" d="M8.832-5.984H5.824V-10.4h3.008zm-5.1 0H1.808V-4.3H12.88v-1.68h-1.952v-4.42h2v-1.68h-11.2v1.68h2zM.688-2.048v1.712h13.344v-1.712zm22.112.08V-4.16h4.464v-1.7H18.72V-7.5h8.208v-4.912h-10.32v1.68h8.24v1.584h-8.224v4.988h4.064v2.192h-5.6V-.24h13.344v-1.728zm12.784-7.76v1.712h1.568v3.568h1.968v-8.64h-1.968v3.36zm1.152 3.344a3.917 3.917 0 0 1-2.608-3.84v-.4h2.144V-12.3H29.76v1.68h2.32v.4a4.23 4.23 0 0 1-2.78 4.108L30.368-4.5a4.91 4.91 0 0 0 2.752-2.64 4.569 4.569 0 0 0 2.58 2.388zM31.9-2.16h8.032v3.552h2.112v-5.216H31.9zm8.144-11.2v8.976h2v-8.976zm15.76 7.6H47.6v-1.648h7.76V-9.04H47.6v-1.552h8.1v-1.7H45.456V-4.1h10.352zM43.888-2.032V-.32h13.344v-1.712zm20.656-4.384h4.784v-5.7h-6.96v1.68h4.8v2.356h-4.784v6.064h1.328a40.412 40.412 0 0 0 7.232-.512L70.72-4.24a36.876 36.876 0 0 1-6.176.48zm7.2-6.96V1.408h2.112v-14.784zm9.392 2.912h3.008v4.176h-3.008zm2.56 8.48v-2.624h4.5v-1.68H86.24v-4.176h2v-1.68h-11.2v1.68h2v4.176h-1.92v1.68h4.464v2.624H76v1.7h13.344v-1.7zM102.32-5.76h-8.208v-1.648h7.76V-9.04h-7.76v-1.552h8.1v-1.7H91.968V-4.1h10.352zM90.4-2.032V-.32h13.344v-1.712z" class="cls-1" transform="translate(216 67)"/>
        <g id="그룹_2316" transform="translate(-130.106 -195.023)">
            <g id="그룹_13" transform="translate(234.939 226.772)">
                <g id="그룹_12">
                    <g id="그룹_11">
                        <g id="그룹_10" transform="translate(6.783 30.318)">
                            <circle id="타원_376" cx="3.896" cy="3.896" r="3.896" class="cls-2" transform="rotate(-67.48 5.388 3.598)"/>
                        </g>
                        <path id="패스_10" d="M246.813 226.772a11.868 11.868 0 0 0-11.874 11.863c0 4.662 2.851 8.962 8.906 10.039v-11.522a2.968 2.968 0 0 1 5.937 0v6.665c0 3.806-1.313 4.937-2.969 5.693-2.364 1.079-2.968 3.427-2.968 6.392v.528h5.937v-.53s-.292-4.531 2.251-6.222c4.388-2.919 6.655-6.538 6.655-11.044a11.868 11.868 0 0 0-11.875-11.862z" class="cls-3" transform="translate(-234.939 -226.772)"/>
                    </g>
                </g>
            </g>
            <g id="그룹_17" transform="translate(258.616 244.527)">
                <g id="그룹_16">
                    <path id="패스_11" d="M331.344 305.053l-1.743 1.534a10.318 10.318 0 0 1-3.44-4.974 11.239 11.239 0 0 1-3.835 5.206l-1.813-1.487a10.994 10.994 0 0 0 4.346-9.25v-4.114h2.557v4.114c0 3.347.953 6.601 3.928 8.971zm1.023-5.761h-2.673v-2.324h2.673v-5.789h2.394v19.639h-2.394zm6.647 12.476H336.6v-20.915h2.417z" class="cls-1" transform="translate(-320.513 -290.853)"/>
                    <path id="패스_12" d="M552.416 291.774a4.944 4.944 0 1 0 5.345 4.927 5.151 5.151 0 0 0-5.345-4.927zm0 7.716a2.8 2.8 0 1 1 2.859-2.789 2.828 2.828 0 0 1-2.859 2.789z" class="cls-3" transform="translate(-484.197 -291.518)"/>
                    <path id="패스_13" d="M569.6 341.9h-14.351v-5.739h11.838V334.6h-11.838v-2.045H569.6v5.6h-11.841v1.7H569.6z" class="cls-1" transform="translate(-490.107 -320.985)"/>
                    <path id="사각형_3" d="M0 0H2.51V10.575H0z" class="cls-1" transform="translate(76.98)"/>
                    <g id="그룹_14" transform="translate(41.838)">
                        <path id="패스_14" d="M524.2 299.648v-8.8h-2.51v20.915h2.51v-9.8h3.221v-2.324z" class="cls-1" transform="translate(-507.698 -290.853)"/>
                        <path id="패스_15" d="M481.475 307.5v-10.121h2.443v-2.115h-12.646v2.115h2.138v10.095l-2.138.022v2.115h12.646V307.5zm-2.51 0h-3.021v-10.121h3.021z" class="cls-1" transform="translate(-471.272 -294.04)"/>
                    </g>
                    <path id="패스_16" d="M393.748 301.675c3.486-1.72 5.345-4.067 5.345-7.042v-2.022h2.626v2.069c0 2.812 1.627 5.09 4.95 6.484L405.183 303a9.017 9.017 0 0 1-4.741-4.23 9.986 9.986 0 0 1-4.951 4.578l-1.743-1.673" class="cls-1" transform="translate(-373.424 -292.123)"/>
                    <g id="그룹_15" transform="translate(25.809)">
                        <path id="패스_17" d="M448.936 295.417v-4.564h-2.51v11.6h2.51v-4.8h2.742v-2.231z" class="cls-1" transform="translate(-437.292 -290.853)"/>
                        <path id="패스_18" d="M419.068 333.564c-3.068 0-5.555 2.185-5.555 4.835s2.487 4.834 5.555 4.834 5.555-2.185 5.555-4.834-2.487-4.835-5.555-4.835zm0 7.554a2.728 2.728 0 1 1 2.952-2.719 2.885 2.885 0 0 1-2.952 2.719z" class="cls-2" transform="translate(-413.513 -321.711)"/>
                    </g>
                </g>
            </g>
        </g>
    </g>
</svg>
